<svg xmlns="http://www.w3.org/2000/svg" viewBox="0 0 1965.58 1437.57"><defs><style>.cls-1{isolation:isolate;}.cls-2{fill:#dcdeea;}.cls-3{fill:#f7f7fb;}.cls-4{fill:#babac6;}.cls-5{fill:#3d4d56;}.cls-6{fill:#f26f8d;}.cls-7{fill:#d0d0d6;}.cls-8{fill:#96989d;}.cls-9{fill:#c5c5d6;}.cls-10{fill:#a8d3ec;}.cls-11{fill:#d2e8f3;}.cls-12{fill:#86c6ec;}.cls-13{fill:#93caea;}.cls-14{fill:#b4d7eb;}.cls-15{fill:#e5e5ea;}.cls-16{fill:#bdbdc2;}.cls-17{fill:#7aaf37;}.cls-18{fill:#cc4161;}.cls-19{fill:#e15a78;}.cls-20{fill:#85c0e2;}.cls-21{fill:#9acdea;}.cls-22{fill:#d7e3f4;}.cls-23{fill:#fff;}.cls-24{fill:#e8f3f7;}.cls-25{fill:#b7dff2;}.cls-26{fill:#f5dc13;}.cls-27{fill:none;}.cls-28{fill:#f47638;}.cls-29{fill:#4599d4;}.cls-30{fill:#ed4b4b;}.cls-31{fill:#f37374;}.cls-32{fill:#e23a39;}.cls-33{fill:#fbc4b3;}.cls-34{fill:#f79f8e;}.cls-35{fill:#34ac8f;}.cls-36{fill:#342220;}.cls-37{fill:#2b3843;}.cls-38{fill:#fcd112;}.cls-39{fill:#fabe17;}.cls-40{fill:#f9b6ab;}.cls-41{fill:#c2aeb6;}.cls-42{fill:#9b8790;}</style></defs><g id="Layer_2" data-name="Layer 2"><g id="Layer_3" data-name="Layer 3"><g class="cls-1"><polygon class="cls-2" points="776.6 221.13 776.37 301.84 766.59 307.52 766.85 215.5 776.6 221.13"/><polygon class="cls-2" points="886.01 260.43 885.72 364.98 875.94 370.65 876.24 266.11 886.01 260.43"/><polygon class="cls-3" points="886.01 260.43 876.24 266.11 755.99 196.69 765.77 191 886.01 260.43"/><polygon class="cls-4" points="876.24 266.11 875.94 370.65 865.06 364.38 865.32 272.35 776.6 221.13 766.85 215.5 766.59 307.52 755.7 301.23 755.99 196.69 876.24 266.11"/></g><g class="cls-1"><path class="cls-2" d="M724.5,138.26l0-.07-.1-.28-.11-.26-.11-.27,0-.1,0,0a.61.61,0,0,0-.05-.12c0-.1-.09-.19-.14-.28l-.16-.33-.09-.15-.07-.12-.11-.19c-.1-.18-.22-.36-.33-.53l-.09-.15,0,0-.33-.46a2.37,2.37,0,0,0-.23-.3v0h0l-.19-.23-.21-.25-.22-.24,0,0,0,0-.18-.19-.24-.23-.24-.23h0l0,0-.21-.18a2.43,2.43,0,0,0-.25-.2l-.24-.19h0l-.23-.16-.23-.15-.22-.14-.06,0-.17-.1-.22-.11-.22-.1h0l-.17-.08-.22-.08-.22-.07h0l-.21-.06-.23,0-.16,0h-.07l-.25,0h-.31l-.25,0-.31,0-.13,0-.11,0-.15,0a2.11,2.11,0,0,0-.43.2h0l-77.56,45.07a3,3,0,0,1,.58-.24l.11,0a2.94,2.94,0,0,1,.68-.09,3.18,3.18,0,0,1,.61,0h0a4.34,4.34,0,0,1,.6.14h0a5.19,5.19,0,0,1,.62.23h0c.21.1.42.2.63.32s.49.31.74.49h0c.24.18.48.37.71.58h0c.23.21.46.43.68.66l0,0c.22.24.43.49.64.75v0c.2.26.4.53.59.81l.09.14c.15.23.3.48.44.73l.07.11c.15.29.31.58.44.89l0,0c.15.32.28.65.4,1l29.25,82.27,77.56-45.08Z"/><path class="cls-2" d="M957.88,416v-.14a.49.49,0,0,1,0-.12c0-.09,0-.18,0-.27s0-.1,0-.15v-.05a.17.17,0,0,1,0-.07c0-.09,0-.18,0-.27s0-.17,0-.25v0h0l-.06-.29-.06-.29V414l-.06-.22-.09-.29,0-.09,0-.06a.5.5,0,0,0,0-.13l-.09-.28a1.8,1.8,0,0,1-.08-.21v-.06c0-.09-.07-.18-.11-.26s-.08-.18-.11-.27a.2.2,0,0,1,0-.08l0-.05a.83.83,0,0,0-.07-.13c0-.1-.09-.2-.14-.3a2.12,2.12,0,0,0-.11-.21l-45,26.15,45-26.16L901.34,305.74l-77.57,45.08L879,456.44h0c.11.22.22.43.31.65l0,.05.27.63v0c.08.2.15.41.21.61l0,.06c.07.2.12.4.17.6l0,0c.05.21.09.42.13.62v0c0,.2.07.4.09.59v0a5.29,5.29,0,0,1,0,.54v.63c0,.18,0,.35,0,.52v0c0,.17,0,.33-.08.48v0a4.21,4.21,0,0,1-.12.42l0,.1a2.39,2.39,0,0,1-.15.37v0c-.07.14-.14.26-.22.39a2.6,2.6,0,0,1-.37.45l-.1.1a2.24,2.24,0,0,1-.46.35l77.56-45.07a2.66,2.66,0,0,0,.46-.35l.11-.1a3.38,3.38,0,0,0,.37-.46h0c.07-.12.14-.24.21-.38h0v0l.12-.28,0-.1,0-.09s0-.07,0-.11a2.86,2.86,0,0,0,.07-.28v-.07a1.42,1.42,0,0,1,0-.2,2.34,2.34,0,0,1,0-.26V417a1.5,1.5,0,0,0,0-.22,2.11,2.11,0,0,0,0-.26v-.08a1.09,1.09,0,0,1,0-.18C957.89,416.19,957.88,416.1,957.88,416Z"/><polygon class="cls-3" points="753.75 220.54 676.19 265.61 823.77 350.82 901.34 305.74 753.75 220.54"/><path class="cls-4" d="M879,456.44,823.77,350.82,676.19,265.61l-29.25-82.27a12.06,12.06,0,0,0-4.86-6.23,4.89,4.89,0,0,0-2.53-.74c-2.69,0-3.75,3.24-2.37,7.14l32.3,90.85,149.24,86.16,52,99.37a11.33,11.33,0,0,0,4.15,4.58,4.07,4.07,0,0,0,3.58.53C880.71,464.05,881,460.22,879,456.44Z"/></g><g class="cls-1"><polygon class="cls-2" points="699.49 270.61 699.26 351.32 689.48 357 689.74 264.99 699.49 270.61"/><polygon class="cls-2" points="808.91 309.92 808.61 414.46 798.83 420.14 799.13 315.6 808.91 309.92"/><polygon class="cls-3" points="808.91 309.92 799.13 315.6 678.88 246.17 688.66 240.48 808.91 309.92"/><polygon class="cls-4" points="799.13 315.6 798.83 420.14 787.95 413.86 788.21 321.83 699.49 270.61 689.74 264.99 689.48 357 678.59 350.71 678.88 246.17 799.13 315.6"/></g><path class="cls-5" d="M634.64,453a8.16,8.16,0,0,1-8.16-8.16V42.1a8.16,8.16,0,0,1,16.32,0V444.85A8.16,8.16,0,0,1,634.64,453Z"/><polygon class="cls-6" points="713.73 0 634.64 42.1 555.55 0 713.73 0"/><polygon class="cls-6" points="825.59 64.58 825.59 155.92 634.64 42.1 825.59 64.58"/><polygon class="cls-3" points="825.59 155.92 713.73 220.5 634.64 42.1 825.59 155.92"/><polygon class="cls-6" points="634.64 42.1 713.73 220.5 555.55 220.5 634.64 42.1"/><polygon class="cls-3" points="634.64 42.1 555.55 220.5 443.69 155.92 634.64 42.1"/><polygon class="cls-6" points="634.64 42.1 443.69 155.92 443.69 64.58 634.64 42.1"/><polygon class="cls-3" points="555.55 0 634.64 42.1 443.69 64.58 555.55 0"/><polygon class="cls-3" points="713.73 0 825.59 64.58 634.64 42.1 713.73 0"/><polygon class="cls-7" points="1623.56 607.15 1623.52 618.7 1790.07 521.91 1790.11 510.36 1623.56 607.15"/><polygon class="cls-8" points="1455.92 510.36 1455.88 521.91 1623.52 618.7 1623.56 607.15 1455.92 510.36"/><polygon class="cls-3" points="1622.47 413.57 1455.92 510.36 1623.56 607.15 1790.11 510.36 1622.47 413.57"/><path class="cls-9" d="M1959.34,789.12c0,.26,0,.53-.06.79s-.06.46-.09.69-.07.52-.12.79-.09.46-.15.69-.11.51-.18.76-.13.46-.2.7-.17.5-.26.75-.16.46-.25.68-.22.53-.34.8-.2.44-.31.66l-.4.79c-.12.21-.23.42-.36.63s-.37.62-.57.93-.24.38-.37.56c-.23.34-.48.68-.74,1-.11.14-.21.29-.33.44-.42.53-.88,1.06-1.36,1.59l-.38.39c-.38.4-.78.8-1.19,1.19l-.57.53-.76.66-.72.6-.82.64-.78.59-.89.62-.84.57-1,.6c-.4.25-.8.5-1.21.74L945.31,1390c-1.13.66-2.32,1.27-3.54,1.86l-1,.45c-1.09.5-2.21,1-3.36,1.43l-.45.19c-1.22.46-2.48.88-3.76,1.29-.89.28-1.79.52-2.7.77-.69.18-1.36.38-2.06.55-1,.23-1.93.43-2.9.62-.71.14-1.4.31-2.12.43l-.88.14c-1.2.2-2.42.37-3.64.52l-1.06.12c-.7.08-1.4.12-2.11.18q-1.77.15-3.54.24l-2.27.06c-1,0-1.92,0-2.88,0l-2.4-.06c-.89,0-1.77-.09-2.66-.15s-1.62-.12-2.42-.2-1.75-.18-2.62-.29-1.57-.21-2.34-.33c-.94-.15-1.86-.31-2.78-.49-.73-.14-1.46-.28-2.18-.44-1.1-.24-2.18-.51-3.25-.79-.7-.19-1.41-.36-2.09-.57l-1.1-.34c-1.09-.34-2.15-.7-3.2-1.09-.3-.11-.61-.21-.91-.33-1-.37-1.86-.78-2.78-1.18-.45-.2-.92-.38-1.36-.59-1.32-.63-2.61-1.3-3.84-2L167.68,983.83c-10.34-6-15.51-13.81-15.49-21.63l-.11,38.72c0,7.83,5.15,15.66,15.49,21.63L871,1428.7c1.23.71,2.52,1.38,3.84,2,.45.21.91.39,1.36.59.78.35,1.56.71,2.36,1l.42.15.92.34q1.56.57,3.18,1.08l1.11.35.74.23c.44.12.9.21,1.35.33,1.07.28,2.15.56,3.25.8.3.06.58.15.87.21s.87.14,1.31.23c.92.17,1.84.33,2.78.48.37.06.74.14,1.11.19s.82.09,1.23.14c.87.11,1.74.21,2.62.29.42,0,.83.11,1.25.14s.78,0,1.17.07c.89.06,1.77.1,2.66.14.45,0,.89.06,1.33.07s.72,0,1.07,0c1,0,1.92,0,2.88,0,.47,0,.95,0,1.43,0l.84,0c1.19,0,2.36-.14,3.54-.24.48,0,1,0,1.43-.09l.68-.08,1.07-.13c1.22-.15,2.42-.32,3.63-.51.29,0,.59-.09.88-.15l.43-.06c.57-.11,1.12-.25,1.69-.37,1-.19,1.94-.38,2.9-.62.7-.16,1.37-.36,2.06-.55.91-.25,1.81-.49,2.7-.77.19-.06.39-.1.58-.17,1.08-.35,2.14-.72,3.18-1.12l.45-.19c1.15-.44,2.27-.92,3.36-1.43l1-.45c1.22-.59,2.41-1.2,3.54-1.86L1944,848.25l.64-.38.57-.36c.32-.2.64-.4,1-.61l.84-.56.89-.63.78-.58.82-.65.72-.6.76-.66.31-.27c.09-.08.17-.17.26-.26.41-.39.81-.79,1.19-1.18l.38-.4c.48-.52.94-1.05,1.36-1.59l.06-.07c.1-.12.18-.25.27-.37.26-.34.51-.67.74-1s.25-.38.37-.57.39-.61.57-.92l.16-.26c.07-.13.13-.26.2-.38s.28-.52.4-.79.21-.44.31-.66.23-.53.34-.8l.15-.35c0-.11.07-.22.1-.32s.18-.51.26-.76.14-.46.2-.7.13-.5.18-.76.08-.27.1-.41,0-.19,0-.28c0-.27.09-.53.12-.79s.07-.46.09-.69,0-.53.06-.79,0-.31,0-.46,0-.31,0-.46l.11-38.73C1959.37,788.5,1959.35,788.81,1959.34,789.12Z"/><path class="cls-3" d="M1944.14,809.53,945.31,1390c-20.42,11.86-53.62,11.86-74.17,0L167.68,983.82c-20.55-11.85-20.66-31.1-.25-43l998.83-580.45c20.42-11.87,53.62-11.87,74.17,0L1455.88,484.8l111.84,64.57,376.17,217.19C1964.44,778.43,1964.55,797.66,1944.14,809.53Z"/><path class="cls-2" d="M1864.14,796.49l-24.26,14.09-920.41,534.9c-.9.5-4.9,1.93-11.19,1.93-5.94,0-10.24-1.35-11.41-2l-625.18-361-24.24-14a9.58,9.58,0,0,1,0-16.57l944.68-549c.89-.5,4.89-1.93,11.18-1.93,5.94,0,10.24,1.34,11.41,2l649.42,374.94A9.58,9.58,0,0,1,1864.14,796.49Z"/><path class="cls-10" d="M1839.88,810.58l-920.41,534.9c-.9.5-4.9,1.93-11.19,1.93-5.94,0-10.24-1.35-11.41-2l-625.18-361,920.42-534.91c.89-.49,4.89-1.93,11.18-1.93,5.94,0,10.24,1.36,11.41,2Z"/><path class="cls-11" d="M1203.29,638.78c-6.29,0-10.29,1.43-11.18,1.93l-755.42,439,460.18,265.69c1.17.65,5.47,2,11.41,2,6.29,0,10.29-1.43,11.19-1.93l755.41-439L1214.7,640.78C1213.53,640.13,1209.23,638.78,1203.29,638.78Z"/><polygon class="cls-12" points="1064.42 598.33 1021.57 623.06 1021.57 605.02 1064.42 580.28 1064.42 598.33"/><polygon class="cls-12" points="1028.63 700.18 985.77 724.92 985.77 706.88 1028.63 682.14 1028.63 700.18"/><polygon class="cls-13" points="950.59 665.78 907.73 690.52 907.73 672.47 950.59 647.73 950.59 665.78"/><polygon class="cls-13" points="512.01 1001.57 469.15 1026.31 469.15 1008.26 512.01 983.52 512.01 1001.57"/><polygon class="cls-13" points="1137.03 636.74 1094.18 661.48 1094.18 643.44 1137.03 618.7 1137.03 636.74"/><polygon class="cls-12" points="834.05 748.13 791.19 772.87 791.19 754.82 834.05 730.08 834.05 748.13"/><polygon class="cls-12" points="547.32 899.98 504.47 924.72 504.46 906.68 547.32 881.94 547.32 899.98"/><polygon class="cls-14" points="925.41 769.52 882.56 794.26 882.56 776.22 925.41 751.48 925.41 769.52"/><polygon class="cls-14" points="393.3 961.37 350.45 986.11 350.45 968.06 393.3 943.32 393.3 961.37"/><polygon class="cls-13" points="1485.7 772.52 1442.85 747.78 1442.85 729.74 1485.7 754.48 1485.7 772.52"/><polygon class="cls-12" points="1304.81 565.52 1261.96 540.78 1261.96 522.73 1304.81 547.47 1304.81 565.52"/><polygon class="cls-12" points="1603.18 835.58 1560.33 810.84 1560.33 792.8 1603.18 817.54 1603.18 835.58"/><polygon class="cls-12" points="1655.75 751.13 1612.9 726.39 1612.9 708.34 1655.75 733.08 1655.75 751.13"/><polygon class="cls-14" points="1571.72 764.79 1528.87 740.05 1528.87 722.01 1571.72 746.75 1571.72 764.79"/><polygon class="cls-14" points="1708.21 854.75 1665.36 830.01 1665.36 811.96 1708.21 836.7 1708.21 854.75"/><polygon class="cls-13" points="1571.72 655.76 1571.72 846.91 1467.19 786.5 1467.19 595.68 1571.72 655.76"/><polygon class="cls-7" points="1571.72 611.11 1571.72 655.76 1508.74 619.39 1531.34 590.75 1571.72 611.11"/><polygon class="cls-15" points="1629.75 577.5 1571.72 611.11 1470.29 552.54 1533.64 522.02 1629.75 577.5"/><polygon class="cls-16" points="1743.83 467.96 1743.7 511.28 1629.75 577.5 1629.87 534.19 1743.83 467.96"/><polygon class="cls-7" points="1533.76 478.7 1533.64 522.02 1629.75 577.5 1629.87 534.19 1533.76 478.7"/><polygon class="cls-17" points="1647.72 412.48 1533.76 478.7 1629.87 534.19 1743.83 467.96 1647.72 412.48"/><polygon class="cls-18" points="1317.89 722.01 1317.86 736.01 1756.09 481.33 1756.13 467.33 1317.89 722.01"/><polygon class="cls-19" points="1206.06 657.44 1206.02 671.44 1317.86 736.01 1317.89 722.01 1206.06 657.44"/><polygon class="cls-6" points="1644.29 402.76 1206.06 657.44 1317.89 722.01 1756.13 467.33 1644.29 402.76"/><path class="cls-20" d="M526.65,1000.78h0a6.72,6.72,0,0,1-6.72-6.72V928a6.72,6.72,0,0,1,6.72-6.72h0a6.72,6.72,0,0,1,6.72,6.72v66.08A6.72,6.72,0,0,1,526.65,1000.78Z"/><path class="cls-21" d="M541.79,914.86c-8.36-4.82-21.91-4.82-30.26,0s-8.36,12.65,0,17.47,21.9,4.83,30.26,0S550.14,919.69,541.79,914.86Z"/><path class="cls-22" d="M529.34,860.29A6.72,6.72,0,0,1,526,847.76l60.43-35.12a6.72,6.72,0,1,1,6.75,11.62l-60.43,35.12A6.64,6.64,0,0,1,529.34,860.29Z"/><path class="cls-20" d="M529.34,960.23A6.73,6.73,0,0,1,526,947.69l60.41-35.1a6.72,6.72,0,0,1,6.76,11.62l-60.42,35.11A6.75,6.75,0,0,1,529.34,960.23Z"/><path class="cls-22" d="M526.65,927.55h0a6.72,6.72,0,0,1-6.72-6.72V808c0-17.64-12.9-40-28.18-48.82-6.17-3.56-11.86-4.37-15.59-2.21s-5.88,7.48-5.88,14.6v39.2a6.72,6.72,0,0,1-6.72,6.72h0a6.72,6.72,0,0,1-6.72-6.72V771.6c0-12.23,4.48-21.55,12.61-26.24s18.43-3.91,29,2.2C518,758.87,533.38,785.43,533.38,808v112.8A6.72,6.72,0,0,1,526.65,927.55Z"/><path class="cls-20" d="M592.43,965.22h0a6.72,6.72,0,0,1-6.72-6.72V892.43a6.73,6.73,0,0,1,6.73-6.73h0a6.72,6.72,0,0,1,6.72,6.73V958.5A6.72,6.72,0,0,1,592.43,965.22Z"/><path class="cls-21" d="M607.57,879.31c-8.36-4.83-21.9-4.83-30.26,0s-8.35,12.64,0,17.47,21.9,4.82,30.26,0S615.93,884.13,607.57,879.31Z"/><path class="cls-22" d="M592.44,892h0a6.72,6.72,0,0,1-6.73-6.72V772.47c0-17.64-12.91-40-28.19-48.82-6.17-3.56-11.85-4.37-15.59-2.21s-5.88,7.48-5.88,14.61v39.19a6.72,6.72,0,0,1-6.72,6.72h0a6.72,6.72,0,0,1-6.72-6.72V736.05c0-12.24,4.47-21.56,12.6-26.25s18.44-3.91,29,2.21c19.58,11.3,34.91,37.86,34.91,60.46v112.8A6.72,6.72,0,0,1,592.44,892Z"/><path class="cls-22" d="M529.34,910.27A6.72,6.72,0,0,1,526,897.74l60.41-35.13a6.73,6.73,0,0,1,6.76,11.63l-60.42,35.12A6.75,6.75,0,0,1,529.34,910.27Z"/><polygon class="cls-10" points="1466.95 786.5 1153.63 970.15 1258.4 1030.64 1571.72 847 1466.95 786.5"/><g class="cls-1"><path class="cls-9" d="M701.77,475c0,14.24-37.84,14.21-37.8-.1h0c.54,3.21-2.25,8.56,5.56,13.07,10.19,5.89,32.22,2.84,32.22-7.68h0Z"/><path class="cls-3" d="M696.19,467.16c-7.41-4.28-19.37-4.28-26.73,0s-7.32,11.2.09,15.48,19.37,4.27,26.73,0S703.59,471.43,696.19,467.16Z"/></g><path class="cls-2" d="M691.26,357.66c-.09,1.08.72-1.57-2.43-3.39a12.86,12.86,0,0,0-11.65,0,4.11,4.11,0,0,0-2.39,3.36h0l-.34,118.44c0,6.16,16.29,6.45,16.47.12,0-.94,0-7.32.34-118.52Zm-1.55,2.77h0C689.58,360.53,689.6,360.52,689.71,360.43Zm.37-.32,0,0Zm1.08-1.75a1.94,1.94,0,0,0,.05-.2S691.18,358.29,691.16,358.36Zm-.15.45a1.19,1.19,0,0,0,.08-.2C691.07,358.66,691,358.75,691,358.81Zm-.24.45a1.18,1.18,0,0,0,.11-.19A1.3,1.3,0,0,1,690.77,359.26Zm-.31.43.12-.14Zm-1.28,1.12-.31.21Zm-14.37-2.93c0,.07,0,.14,0,.21S674.82,358,674.81,357.88Zm.08.46c0,.07,0,.14.05.21S674.91,358.41,674.89,358.34Zm.15.45.09.21Zm.24.45c0,.06.07.13.12.2S675.32,359.3,675.28,359.24Zm.32.44.14.18Zm1,1-.14-.11Zm-.49-.39-.16-.15Z"/><g class="cls-1"><path class="cls-9" d="M601.13,334.46a30.8,30.8,0,0,1-3.52-14.16l0,11.22c-.1,35.33,61.28,58.6,116.22,46.32,63.88-14.28,53.53-52.6,54.33-57.06C768,377.09,628.33,387.73,601.13,334.46Z"/><path class="cls-3" d="M743,285.62c-33.41-19.28-87.4-19.28-120.59,0s-33,50.56.4,69.85,87.39,19.28,120.57,0S776.37,304.91,743,285.62Z"/></g><g class="cls-1"><polygon class="cls-2" points="533.33 365.36 533.09 446.08 523.32 451.76 523.58 359.74 533.33 365.36"/><polygon class="cls-2" points="642.74 404.67 642.45 509.21 632.67 514.89 632.97 410.35 642.74 404.67"/><polygon class="cls-3" points="642.74 404.67 632.97 410.35 512.72 340.93 522.5 335.24 642.74 404.67"/><polygon class="cls-4" points="632.97 410.35 632.67 514.89 621.78 508.61 622.04 416.58 533.33 365.36 523.58 359.74 523.32 451.76 512.42 445.47 512.72 340.93 632.97 410.35"/></g><g class="cls-1"><path class="cls-2" d="M481.23,282.5l0-.08-.1-.27-.11-.27c0-.09-.08-.17-.11-.26a.54.54,0,0,1-.05-.11l0,0-.05-.12-.14-.29-.17-.32-.09-.16-.06-.11-.11-.2c-.1-.18-.22-.35-.33-.53l-.09-.14,0,0-.33-.47-.23-.3h0l-.19-.24-.21-.25-.22-.23,0,0,0,0a1.54,1.54,0,0,0-.17-.19l-.24-.23-.24-.23,0,0h0l-.21-.19-.25-.2-.24-.18h0l-.23-.16a1.82,1.82,0,0,0-.23-.15l-.23-.14-.05,0-.17-.1-.22-.11-.22-.11h0l-.18-.08-.21-.08-.23-.07h0l-.21-.06-.23,0-.16,0h-.08l-.24,0h-.56l-.32,0-.12,0-.11,0-.15.05a2.48,2.48,0,0,0-.44.2h0L394.9,321a2.81,2.81,0,0,1,.59-.24l.11,0a2.93,2.93,0,0,1,.68-.1c.2,0,.4,0,.6,0h0a4.34,4.34,0,0,1,.6.14h0a5.92,5.92,0,0,1,.62.23h0a6.23,6.23,0,0,1,.63.32,7.73,7.73,0,0,1,.74.48h0a7.38,7.38,0,0,1,.71.57l0,0c.23.2.45.43.67.66l0,0c.22.24.44.49.65.75h0c.2.26.4.53.59.81,0,.05.05.1.08.14.16.24.31.48.45.73l.06.12c.16.28.31.58.45.88l0,0c.14.32.28.65.4,1l29.25,82.27,77.56-45.07Z"/><path class="cls-2" d="M714.61,560.25V560a2.45,2.45,0,0,1,0-.27.77.77,0,0,1,0-.15v-.12a2.36,2.36,0,0,1,0-.28c0-.08,0-.16,0-.25h0v0l-.06-.28c0-.1,0-.19-.07-.29v-.08c0-.07,0-.14,0-.21l-.09-.29,0-.1,0-.06a.56.56,0,0,0,0-.12,2.31,2.31,0,0,0-.1-.28c0-.07-.05-.14-.07-.21l0,0v0l-.1-.27-.12-.26,0-.08,0,0-.06-.14-.14-.29c0-.07-.07-.15-.11-.22l-45,26.16,45-26.16L658.06,450,580.5,495.05l55.23,105.63h0c.11.21.21.43.31.64l0,0c.09.22.18.43.26.64v0c.08.21.15.41.22.62l0,.06c.06.2.12.4.17.59v.05c.06.21.1.41.14.62v0c0,.2.07.39.09.59v0c0,.18,0,.36,0,.54v.06c0,.18,0,.35,0,.52v0c0,.17,0,.34,0,.51v0a4,4,0,0,1-.08.48v0c0,.14-.07.28-.11.42l0,.09-.15.38v0c-.07.13-.14.26-.22.38a2.76,2.76,0,0,1-.37.46.94.94,0,0,1-.1.1,2.66,2.66,0,0,1-.46.35L713,564a2.28,2.28,0,0,0,.46-.36l.1-.09a2.76,2.76,0,0,0,.37-.46h0a3.22,3.22,0,0,0,.2-.37h0v0l.12-.28,0-.09,0-.09s0-.08,0-.11.05-.19.07-.29v-.06a1.77,1.77,0,0,0,0-.2,2.51,2.51,0,0,0,0-.27v0c0-.07,0-.15,0-.22s0-.17,0-.26v-.52Z"/><polygon class="cls-3" points="510.48 364.77 432.91 409.84 580.5 495.05 658.06 449.97 510.48 364.77"/><path class="cls-4" d="M635.73,600.68,580.5,495.05,432.91,409.84l-29.24-82.27a12,12,0,0,0-4.87-6.22,4.89,4.89,0,0,0-2.52-.74c-2.69,0-3.76,3.24-2.37,7.14l32.3,90.84,149.24,86.17,51.95,99.37a11.35,11.35,0,0,0,4.16,4.58,4,4,0,0,0,3.57.52C637.44,608.29,637.7,604.45,635.73,600.68Z"/></g><g class="cls-1"><polygon class="cls-2" points="456.22 414.84 455.99 495.56 446.21 501.24 446.47 409.22 456.22 414.84"/><polygon class="cls-2" points="565.63 454.15 565.34 558.69 555.56 564.37 555.86 459.83 565.63 454.15"/><polygon class="cls-3" points="565.63 454.15 555.86 459.83 435.61 390.41 445.39 384.72 565.63 454.15"/><polygon class="cls-4" points="555.86 459.83 555.56 564.37 544.67 558.09 544.93 466.06 456.22 414.84 446.47 409.22 446.21 501.24 435.31 494.95 435.61 390.41 555.86 459.83"/></g><ellipse class="cls-10" cx="796.87" cy="1016.94" rx="59.59" ry="29.53"/><path class="cls-23" d="M813.65,941.89c-19.62,0-39.24-4.31-54.18-12.94-14.7-8.49-22.8-19.85-22.8-32s8.1-23.5,22.8-32c29.88-17.25,78.49-17.25,108.36,0,14.71,8.49,22.8,19.85,22.8,32s-8.09,23.49-22.8,32C852.9,937.58,833.27,941.89,813.65,941.89Zm0-87.45c-19.18,0-38.36,4.21-53,12.64-13.92,8-21.59,18.65-21.59,29.89s7.67,21.84,21.59,29.88c29.2,16.86,76.72,16.86,105.93,0,13.92-8,21.58-18.65,21.58-29.88s-7.66-21.85-21.58-29.89C852,858.65,832.83,854.44,813.65,854.44Z"/><path class="cls-24" d="M813.65,954.34c-25.21,0-50.43-5.54-69.62-16.62-18.78-10.85-29.12-25.32-29.12-40.75s10.34-29.91,29.12-40.75c38.39-22.17,100.86-22.17,139.25,0h0c18.78,10.84,29.12,25.31,29.12,40.75s-10.34,29.9-29.12,40.75C864.08,948.8,838.87,954.34,813.65,954.34Zm0-112.88c-24.87,0-49.74,5.47-68.68,16.4C726.81,868.35,716.8,882.24,716.8,897s10,28.62,28.17,39.1c37.87,21.87,99.49,21.87,137.36,0C900.5,925.59,910.5,911.7,910.5,897s-10-28.62-28.17-39.11C863.4,846.93,838.52,841.46,813.65,841.46Z"/><path class="cls-24" d="M813.65,970c-32.24,0-64.48-7.09-89-21.26-23.9-13.8-37.06-32.19-37.06-51.77s13.16-38,37.06-51.78c49.09-28.34,129-28.34,178.07,0,23.9,13.8,37.06,32.19,37.06,51.78s-13.16,38-37.06,51.77C878.14,962.91,845.9,970,813.65,970Zm0-144.82c-32,0-64,7-88.4,21.11-23.49,13.56-36.43,31.56-36.43,50.68s12.94,37.11,36.43,50.67c48.75,28.15,128.06,28.15,176.8,0,23.5-13.56,36.44-31.56,36.44-50.67s-12.94-37.12-36.44-50.68C877.68,832.22,845.67,825.18,813.65,825.18Z"/><path class="cls-25" d="M858.32,875.86c-23.27-11.53-61-11.53-84.28,0s-23.27,30.24,0,41.77,61,11.53,84.28,0S881.59,887.4,858.32,875.86Z"/><path class="cls-26" d="M861.86,855.2l.11.79a52.4,52.4,0,0,0-3.17-11.49l.29.81c-3.27-7.52-6.27-12.95-12.13-18.71l.15.15a53.83,53.83,0,0,0-10.81-8.45l.23.13c-4.17-1.89-11.9-7.41-26.93-7.63h.49a53.21,53.21,0,0,0-18.36,2.8l.07,0-2.17.79c-10.81,4.18-14.87,8.72-20.21,13.63-8.94,10-11.32,18.88-11.29,18.78-8.84,24.79,1.56,56,31.73,68.13,1,.09,27.84,12.92,55.54-10.79C845.51,903.91,867.11,885.27,861.86,855.2Zm-1.43-5.89c.09.35.19.69.28,1C860.58,849.89,860.52,849.63,860.43,849.31Zm-.13-.41-.36-1.14C859.49,846.32,859.9,847.55,860.3,848.9Z"/><path class="cls-27" d="M805.19,810.91A53.74,53.74,0,0,1,847.41,827c19,19.5-16.91,71.93-54.46,79.73,37.33-7.76,73.52-60.15,54.46-79.73,46.39,48.06-21.17,125.61-74.9,77.18C760.05,893,753.42,875.16,755.37,859,758.55,832.48,778.69,813.05,805.19,810.91Z"/><path class="cls-28" d="M790.59,905.56a2.15,2.15,0,0,1,1.89-.47c-4.83-18.37-2.05-50.57,6.48-73.16,5.38-14.25,11.8-21.38,17.22-20.65-19.11-2.16-37.64,4.73-49.88,20.39-17.1,22.2-5.44,57.91,24.29,73.89Z"/><path class="cls-29" d="M790.89,907.08c-.51-.57-.6-1.13-.3-1.52-30.05-16.16-41.22-51.91-24.29-73.89a54.56,54.56,0,0,0-7.75,13.9c-4.44,13.37-4.61,23.27-.75,35.93,9,24.11,20,26.86,33.09,25.58Z"/><path class="cls-26" d="M793.08,908.27a4.37,4.37,0,0,1-2.19-1.19c-7,.58-15,.63-21.77-6.27a57.91,57.91,0,0,0,5.89,5.57c12,9.21,22.86,10.88,21.86,10.64-1.89-.43-3.23-3.29-3.79-8.75Z"/><path class="cls-28" d="M795.19,908a2.65,2.65,0,0,1-2.11.23c.56,5.46,1.9,8.32,3.79,8.75a54.18,54.18,0,0,0,34.3-3.47c7.73-3.85,11.16-6.81,11.06-6.74-12,9.49-30,10.49-47,1.23Z"/><path class="cls-29" d="M795.26,906.62a1,1,0,0,1-.07,1.42c17.08,9.26,35,8.26,47-1.23,11.65-9.92,17.21-20,19.7-33.31,2.05-15.86-.84-27.31-8.6-39.22,16,26.79-16.59,67.35-58.07,72.34Z"/><path class="cls-27" d="M770.35,902.12c-19-20-19-47.76-7.18-65.92,5.88-9.07,13.29-16,23.36-20.56A53.64,53.64,0,0,1,847.41,827c-4.72-4.84-12.52-6.74-22.61-4.65,10.09-2.09,17.89-.19,22.61,4.65a54.68,54.68,0,0,1,6.55,8.19c7.59,10.89,11.06,28.95,7.1,42.44-3.81,13-8.22,20.09-18.74,29.07C823.53,922.78,789.89,922.72,770.35,902.12Z"/><path class="cls-28" d="M766.3,831.67C779.45,815.93,796,809,816.18,811.28a7.13,7.13,0,0,1,4.36,2.58c-4.25-.59-10.14-.26-12.78,3.15-16.7-2.56-32.38,2.88-41.46,14.66Z"/><path class="cls-29" d="M769.12,900.81c-18.51-21.6-18.22-48.66-2.82-69.14,9.08-11.78,24.76-17.22,41.46-14.66-2,2.63-1.44,6.44,2,10.24-38.29,19.17-54.65,57.11-40.69,73.56Z"/><path class="cls-26" d="M796.87,917c-10.06-2.59-18.25-6.47-26.52-14.9l-1.23-1.31c-15.84-20.12,9.49-58.49,40.69-73.56.13.15.26.29.4.43a30.1,30.1,0,0,0,14.4,7.66c-2.63,34.88-18.8,83.71-27.74,81.68Z"/><path class="cls-28" d="M842.23,906.81c-14.74,10.23-27.3,14-45.36,10.21,9.3,2.11,25.22-48.28,27.74-81.68a23.63,23.63,0,0,0,9.84.36,10.63,10.63,0,0,0,4.41-1.9c21.19,22.72,23.72,56.93,3.37,73Z"/><path class="cls-29" d="M853.33,834.28c17.14,27,9.19,56.49-11.1,72.53,20.94-16.54,17.21-50.94-3.37-73,2.84-2.23,3.09-5.84.49-9.62,3.41,1.29,9.74,3.69,14,10.1Z"/><ellipse class="cls-3" cx="824.01" cy="824.87" rx="10.24" ry="18.21" transform="translate(-233.14 1316.63) rotate(-69.98)"/><polygon class="cls-6" points="1764.07 1050.13 1713.2 1079.5 1914.72 1195.86 1965.58 1166.49 1764.07 1050.13"/><polygon class="cls-3" points="1713.2 1079.5 1662.33 1108.87 1863.85 1225.23 1914.72 1195.86 1713.2 1079.5"/><polygon class="cls-6" points="1662.33 1108.87 1611.46 1138.24 1812.98 1254.6 1863.85 1225.23 1662.33 1108.87"/><polygon class="cls-3" points="1611.46 1138.24 1560.6 1167.62 1762.11 1283.97 1812.98 1254.6 1611.46 1138.24"/><polygon class="cls-6" points="1560.6 1167.62 1509.73 1196.99 1711.24 1313.34 1762.11 1283.97 1560.6 1167.62"/><polygon class="cls-3" points="1509.73 1196.99 1458.86 1226.36 1660.38 1342.71 1711.24 1313.34 1509.73 1196.99"/><polygon class="cls-6" points="1458.86 1226.36 1407.99 1255.73 1609.51 1372.09 1660.38 1342.71 1458.86 1226.36"/><path class="cls-30" d="M966.37,1068.12c-76.22,0-138,33.19-138,74.13s61.79,74.14,138,74.14,138-33.2,138-74.14S1042.59,1068.12,966.37,1068.12Z"/><path class="cls-30" d="M1067.28,1111.15s-21.54,100.81,14.4,71.84c49.66-40,33.18-86.36,33.18-86.36Z"/><path class="cls-30" d="M817.6,1096.63S801.12,1143,850.78,1183c35.94,29,14.4-71.84,14.4-71.84Z"/><path class="cls-31" d="M966.37,1022.93c-82.28,0-149,35.83-149,80s66.7,80,149,80,149-35.84,149-80S1048.65,1022.93,966.37,1022.93Z"/><path class="cls-30" d="M966.37,1056.32c-36.49,0-66.07,15.88-66.07,35.48a21.41,21.41,0,0,0,3.82,11.81c9.06-13.8,33.47-23.7,62.25-23.7s53.19,9.9,62.25,23.7a21.41,21.41,0,0,0,3.82-11.81C1032.44,1072.2,1002.86,1056.32,966.37,1056.32Z"/><path class="cls-32" d="M966.37,1079.91c-28.78,0-53.19,9.9-62.25,23.7,9.06,13.79,33.47,23.69,62.25,23.69s53.19-9.9,62.25-23.69C1019.56,1089.81,995.15,1079.91,966.37,1079.91Z"/><path class="cls-23" d="M1080.48,1069.27a13.14,13.14,0,0,0,7.22-12.76c-3-2.09-5.33-3.93-12.3-8.15a16.26,16.26,0,0,0-1.92,2.15c-2.36,3.16-.25,12.58-.25,12.58a16.63,16.63,0,0,0-11.44-6.77,105.55,105.55,0,0,0-16.4,0s5.21,6,9.42,8.59c3.8,2.34,11.16,4.58,14.48,6.06a30.54,30.54,0,0,0-13.86,1.27c-8,2.57-7.88,13-7.88,13s9.28-1.77,14.36-3.81c2.5-1,8.14-2.67,8.14-2.67s-2.79,8.08-1.14,12.66c1,2.91,6.22,12.76,6.22,12.76s4.73-6.81,5.6-12.33a26.75,26.75,0,0,0-.89-13.09s4,3.08,11.82,4.45a130.51,130.51,0,0,1,14.1,3.31,67.59,67.59,0,0,0-8-12.71C1092.57,1067.27,1080.48,1069.27,1080.48,1069.27Z"/><path class="cls-31" d="M1076.47,1069.16a3.45,3.45,0,0,0-4.93,3.42c.6,3.46,3.25,5.82,5.76,4.13C1080.85,1074.31,1079.63,1070.49,1076.47,1069.16Z"/><path class="cls-23" d="M1117.33,1110.52a74.27,74.27,0,0,0-2.53-14.55,18.22,18.22,0,0,0-3.82,3c-4.39,4.58-5.22,12.58-5.22,12.58s-3.94-7.24-8.89-11-11.82-3.83-11.82-3.83a24.36,24.36,0,0,0,6.1,14.31,22.37,22.37,0,0,0,9,5.63s-10.3,2.15-14.3,5.32-9,12.88-9,12.88,10.68.67,15.44-2,8.58-8.29,8.58-8.29a25.77,25.77,0,0,0-1,13.15,67.38,67.38,0,0,0,3.82,12.33,22,22,0,0,0,7.08-13.53c.43-4-1-11.6-1-11.6a56,56,0,0,0,6.21,5.89,125.14,125.14,0,0,0,1.53-12.77c-2.76-.72-5.13-1.1-5.13-1.1A18.43,18.43,0,0,0,1117.33,1110.52Z"/><path class="cls-31" d="M1107,1115.42c-2.19.1-3.72.77-3.24,4.58s4.58,3.81,5.63,1.14S1108.94,1115.34,1107,1115.42Z"/><path class="cls-23" d="M1046.05,1039.58c-3.68-1.6-11.38-2.49-11.38-2.49a56.5,56.5,0,0,0,6.35-3.43c-2.61-.72-7.26-2.2-12.15-3.37-.64,1.15-1,1.93-1,1.93a14.79,14.79,0,0,0-1.21-2.5,101.66,101.66,0,0,0-17.15-3.39,17.29,17.29,0,0,0,.86,1.81c3.06,5.55,10.44,8.73,10.44,8.73s-8.08,1.6-13.2,5.19-7.18,10.14-7.18,10.14a24.35,24.35,0,0,0,15.48-1.55,22.36,22.36,0,0,0,8-6.87s-1,10.47.81,15.23,9.62,12.41,9.62,12.41,3.83-10,2.7-15.34-5.35-10.66-5.35-10.66a25.77,25.77,0,0,0,12.24,4.93,67.42,67.42,0,0,0,12.91,0A22.1,22.1,0,0,0,1046.05,1039.58Z"/><path class="cls-31" d="M1024.88,1036.89c-.56,2.12-.38,3.77,3.4,4.46s5-3.23,2.77-5S1025.39,1035,1024.88,1036.89Z"/><path class="cls-23" d="M1075.86,1112c-1,.81-2,4.26,1.61,4.46s4.19-4,2.2-5.08S1076.86,1111.19,1075.86,1112Z"/><path class="cls-23" d="M1101.63,1089.4a2.91,2.91,0,0,0-3.9,2c-.39,1.62,1.62,3.34,4.09,2.29A2.26,2.26,0,0,0,1101.63,1089.4Z"/><path class="cls-23" d="M1044.44,1064.33c-2.48-.48-3.72.57-4,3s3,4,5,2.39S1046.22,1064.67,1044.44,1064.33Z"/><path class="cls-23" d="M1003.57,1030a2.73,2.73,0,0,0-3.74,1.44c-.77,1.72.76,3.91,3.62,2.57S1005.32,1030.78,1003.57,1030Z"/><path class="cls-33" d="M1054.58,1083.88c-8.25-9.78-9.19-27.56-23.58-37.21-5.59-3.74-23.39-13.32-23.39-13.32s-9.17-14.49-35.31-10.48c-1.88.29-18.82-1-33.51.06-14.32,1-26.37,4.24-30.5,3.79-14.24-1.55-24,2.43-25.85,8.85-.77,2.65,7,.35,13.24.17,3.93-.11,1.3,3,1,4.38-.26,1.05-1,2.48,1.33,2.1,3.53-.59,10.11-6.24,13.16-5.86,1,.13,18,.24,27.47-.14,8.78-.36,22.79.42,29.93,2.09,9.62,2.25,10.29,4.64,10.29,4.64s-8.67,6.93-12.45,10.17c-4.15,3.56-2,5.41-3.31,14.15-.42,2.86-12.72,19.1-27.1,19-9.85-.09-54.5-6.28-75.85-.84-8.49,2.17-14.91,6.11-18,11.23-3.55,5.92-9,11.27-17.35,20.8-4.28,4.86-21,30.16-27.27,39.66-2.22,3.35-38.7,15.06-35.27,23.07,2.2,5.13,6.87,8.55,18.88,2.83,4.48-2.14,12.47-3.21,16.54-4.31,6-1.6,8.94-2.93,7.93-10-.38-2.67,1.68-4.08,4.7-7,8.84-8.66,35.14-25.44,41-32.42,4.72-5.63,11.05-16.2,11.05-16.2s21.36,1.87,29,2.48c6.38.51,24.22,1.33,24.22,1.33s-22.81,11.93-32.28,22.41c-6.25,6.91-27.12,43.51-40,64-6.65,10.58-21.63,18.58-29.94,23.09-3.35,1.82-13,7.15-11.44,10.08,4.57,8.39,16.85,7.35,22.11,3,5.51-4.6,19.27-5.25,22.12-9.82,1.34-2.15,2.19-9.89,2.19-9.89s37.51-30,45.85-42.35c2.61-3.85,8-16.82,8-16.82S934,1144.27,959.26,1136c15-4.88,18.81-9.91,21.6-13,2.53-2.82.83-22.6,10.42-25.67,23-7.37,31.39-15.95,31.39-15.95s10.36,15.25,18.48,22.74c13.22,12.19,33.58,22.56,34.61,25.42.81,2.26,0,6.49,1.3,12.7.23,1.08,1.47,4,2.4,2.25s1.33-5,2.51-7.63c.93-2.1,2.22,1.81,2.67,5.37.59,4.71.83,11.29,3.24,11.79,3.68.76,4.85-1.09,6.29-6.86,1.91-7.63-1-19.25-6.19-25.67C1081.66,1113.65,1072.85,1105.53,1054.58,1083.88Z"/><path class="cls-34" d="M1008.57,1029.74c-2.2,2.83-4.45,5.45-4.45,5.45s-7.88,8.52-3.72,12c3.22,2.65,17.27-1.85,27-2.51a92.18,92.18,0,0,1,15.27-22.21l-26.14-5.47S1010.29,1027.51,1008.57,1029.74Z"/><path class="cls-33" d="M1015.75,995.46c-9.26,9.26-10.73,22.81-3.29,30.25s21,6,30.25-3.28,10.73-22.81,3.29-30.25S1025,986.2,1015.75,995.46Z"/><path class="cls-35" d="M1014.54,1051.59c-6.75,3.1-14.67,5-19.7,1.4-2.77-2-1.13-8.59,2.91-14.68,1.79-2.7,4.69-6.23,7.5-7.66a59.78,59.78,0,0,0-4.85-3.65s-20.91,10.49-28.69,14.43-10.19,8.72-10.45,15a28.68,28.68,0,0,1-3.79,13.9c-4.22,7.79-16,15.08-16,15.08s-16.14,11.23-21.6,21.36a99,99,0,0,0-4.32,10.1s14.17-7.26,23.26-10.23c12.07-3.94,30.24,1.73,34.31,4.45,8,5.34,7.76,11.94,7.76,11.94a117,117,0,0,0,7-10.42c3-5.21,6.17-10.64,7.5-12.07,6.35-6.86,18.61-12.64,18.61-12.64s-8.71-2.49-4.89-11c3.26-7.27,25.13-27.72,25.13-27.72l-5-3.62S1023.69,1047.4,1014.54,1051.59Z"/><path class="cls-23" d="M990.28,1032.08l-6.19,3.11s-8.23,6-9.23,19,3.84,22.16,6.82,29.93c4.58,11.9,1.64,26.82,1.64,26.82s6.94-17.74,4.66-26.25-7.87-17.86-6.93-28.32S990.28,1032.08,990.28,1032.08Z"/><path class="cls-23" d="M985.11,1059.67c1.91,9.91,4.2,20.29,4.2,20.29s2.22-7.23-.38-19.53c-1.62-7.63,1.26-20.21,1.26-20.21S983.21,1049.75,985.11,1059.67Z"/><path class="cls-23" d="M971.77,1068.12s-1.91,8.9,1.33,15.57,6.1,18.3,6.1,18.3,2.86-9.69-.57-16.94S971.77,1068.12,971.77,1068.12Z"/><path class="cls-23" d="M968.53,1082.35s.22,7.44,2.68,12.78a53.64,53.64,0,0,1,3.52,12.39s2.1-7,0-12.77A68.16,68.16,0,0,0,968.53,1082.35Z"/><path class="cls-36" d="M1056.85,1041.43c-1.58-5.94-2.15-18.56-2.15-24.47s.39-21.93-4.57-25.74a20.24,20.24,0,0,0-9.71-4.19s-2-4.48-11.8-3.91c-7.08.41-14,5.65-15.48,8.86a26.43,26.43,0,0,0-2,9.49,29.64,29.64,0,0,1,12-4.05c5.23-.67,11.06-1.62,11.06-1.62s3.49,18.17,4.25,22.75-6.52,15-10,16.68-16.86,8.08-17.27,17.75c-.18,4.47,4.17,6.33,4.17,6.33s-2.31-6.31,1.08-7.46,6.16.06,11-.81c4.34-.77,5-2.16,5-2.16s-.6,4.21,5.19,11.73c2.79,3.61.36,9.18.36,9.18s7.4-2.52,8.41-9.7c.54-3.87-3-9.82-.66-14.07,2.59,3.39,7,5,9.84,5.54,4.88.94,10.18-2.68,10.18-2.68S1058.59,1048,1056.85,1041.43Z"/><path class="cls-36" d="M996.44,1026.33c-4.51-1.06-9.91,2.84-9.91,2.84a19.71,19.71,0,0,1,10,1.86,16.13,16.13,0,0,0,9,2.12c2.94-2.33,6.39-8,6.39-8l-2.1-3S1003.21,1027.93,996.44,1026.33Z"/><path class="cls-34" d="M1673.35,963.09c17-22.91,12.62-55,1.07-45.84-10.44,8.26-11.48,36-15.26,62.28-1.54,10.68.84,44.9-1.6,54.44s-2.93,14.31.68,23.38,15.12,2.63,15.12,2.63l1.06-92.74-3.09-4.3A4.5,4.5,0,0,0,1673.35,963.09Z"/><path class="cls-33" d="M1731,942.08c-1.87-8.27-24.44-22.76-24.44-22.76s-10.36-4.81-24.19,1.1c0,0-2.85,3.23-9.79,24-6.28,18.76-3.72,73.91-3.72,73.91s7.28,24.82,30.06,29.78c14.66,3.19,22.37-14.48,25.42-24.81-1.41-11.81-4.47-17.63-.67-40.31C1726.53,966,1732.32,947.89,1731,942.08Z"/><path class="cls-34" d="M1688.81,919.93a22.7,22.7,0,0,1,.33,12.89c-2.19,7.46,5.7,11.66,13.34,4.72s9.6-14.44,9.6-14.44-4-4.87-5.41-17C1701.38,904.2,1688.81,919.93,1688.81,919.93Z"/><path class="cls-33" d="M1670.47,885.4c-8,18.76,7.77,43.9,17.31,40.43,5.34-1.94,16.78-9.34,20.51-19.25,4.2-11.16.11-25.09-5.42-29.9C1695.76,870.49,1678.14,867.5,1670.47,885.4Z"/><path class="cls-37" d="M1711.38,871.78c-3.28-4.59-7.93-8.35-14.08-9.35-7.18-1.17-23.27,7.27-30.72,6.31a24.26,24.26,0,0,0,5.54,6.32,12.31,12.31,0,0,1-10.15,1c-.61,2,3.41,4.69,7.66,7.66a16.29,16.29,0,0,0,1.08,8.43c2.31-2.18,8.75-4.41,15.37-.57a14.79,14.79,0,0,0,13.44.93l-1.25,8.26a9.54,9.54,0,0,0,3-.29c1.25-4.14,5-3.74,6.14-1.41,1.38,2.72-.18,9-.18,9s6-.79,11.21-12.25C1721.17,889.81,1722.29,874.1,1711.38,871.78Z"/><path class="cls-34" d="M1670.38,1050.91s-1.68,23.42-1.43,34,3.14,57.33,4,69.33-2.13,19.41-6.33,23.45-15.16,5.18-22.57,12.47c-2.48,2.44-3.25,7.54-3.18,10.95.15,6.79,2.67,13.2,12.13,7.84,2.73-1.54,16.37-11.42,21.33-14.21s16.73-1.5,14.74-12.17c-1.33-7.11-3.73-8,0-22.57,4.06-15.84,6-41.66,6-60.25,0-8.89,2.27-44,0-44.34S1670.38,1050.91,1670.38,1050.91Z"/><path class="cls-33" d="M1722.7,1114.39c-1.23-5.23-1.47-10.27,0-22.83s0-37,0-37l-29.52,9.94s7.4,49.41,6,57.53c-3.07,17.4,2.29,46.25,3.77,57.21,1.69,12.49-5.8,15.87-2.89,22.71s.31,21.41.53,25.06,3.46,12.23,9.24,10.7c9.3-2.45,16.36-4.22,14.35-13s-3.75-28.37-5.29-36.72,6.41-27.33,7-42.65A108.5,108.5,0,0,0,1722.7,1114.39Z"/><path class="cls-38" d="M1723.9,1021.47s-30.72,13.13-57.84,7.26c-2.31,17.2-2.07,49.5-2.07,49.5s7.56,6.37,23.35,8.53v8.9s5.57,5.23,16.58,7.19,25.57-7.19,25.57-7.19,1.84-39.24-.19-50.55S1723.9,1021.47,1723.9,1021.47Z"/><path class="cls-37" d="M1697.12,1028.73c-13.64,0-28.26-10.42-28.26-10.42l-2.8,10.42s8.88,14.67,30.54,16.38c21,1.65,30.54-10.51,30.54-10.51l-3.24-13.13S1706.92,1028.73,1697.12,1028.73Z"/><path class="cls-34" d="M1712.08,978.92a42.75,42.75,0,0,0,10.58,11l1.32-8.7-11.9-21.09S1707,971.51,1712.08,978.92Z"/><path class="cls-34" d="M1693,974c-4.08-1.83-8.71-14.82-8.71-14.82-1.86,6.74-1.4,15.69,8.37,19.54,6.18,2.43,12.81-2.7,12.81-2.7S1701,977.59,1693,974Z"/><path class="cls-34" d="M1674.42,964.52c-2.67,3.55-4.65,3.89-4.65,3.89s2,2.49,6.27-1,2.77-9.93,2.77-9.93A50.52,50.52,0,0,1,1674.42,964.52Z"/><path class="cls-39" d="M1674.42,1050.25s0,9.09,2.71,16,2,18.82,2,18.82l8.2,1.64s1.14-14.41,0-21.26C1681.14,1061.36,1674.42,1050.25,1674.42,1050.25Z"/><path class="cls-33" d="M1752.41,995.81c-2.05-9.29-9.34-27.27-15.9-44.35-5-13.15-11.19-23-18-21-8.49,2.55-10.28,15.45-8.33,23.73,3.11,13.24,14.67,25.79,24.31,44.72-2.84,17.25-16.23,41.09-17.53,46.15-3.38,13.17,10.53,27.2,16.06,23.39,4.36-3-.8-3.56-3-8.71,5.73-7.42-1-16.45-1-16.45S1755.61,1010.25,1752.41,995.81Z"/><path class="cls-34" d="M1714.09,1132.53a8.74,8.74,0,0,0,0,5.68s5.26-3.85,3-11.65A22.48,22.48,0,0,0,1714.09,1132.53Z"/><path class="cls-40" d="M1191.22,501c-4.45,2.76-16.62,8.62-25.13,12.22-1,.41-13.41,4.1-21.28,7.27h0c-6.32,2.47-18.2,5.6-21.85,7.06-3.18,1.27-5.59,3-6.6,4.49-2.35,3.43.77,5.86,6,4.46,7.91-2.09,9.89-.47,10.4-.3s-1.19,2.72-1.7,5.09,2.72,1,4.07-.84,3.84-5.5,6.28-7.3a26.22,26.22,0,0,1,12.91-4.79c8-1.38,19.92-3.83,21.34-4.15,8.85-2,14.28-4.3,22.88-8.45,2.53-1.22,12.85-5.95,12.85-5.95L1207.22,495S1195.68,498.21,1191.22,501Z"/><path class="cls-33" d="M1265.4,614.05c-5.83-6.45-16.59-8.78-16.59-8.78l35.4-27.2-27.1-15.63s-25.48,21.63-34,39c-1.94,4-2,10.26,3.87,15s21.94,9.62,33.18,15.69c8,4.36,18.88,14.61,18.88,14.61l9.27-2.87.83-8.93S1270.76,620,1265.4,614.05Z"/><path class="cls-30" d="M1269.3,524.16c-10.66-12.41-9.12-25.93-24.79-31.43-7.57-2.65-31-3.25-35.87,15.37,0,0-3.2,4.21,0,17.13s6.74,15,15.47,14.87,14.7,9.78,21,14.54c10.85,8.18,13.62,12.83,24.88,18.86a117.64,117.64,0,0,0,19.15,8.11s-14.33-7.31-8.36-18.13c10.41-18.86,22.39-1,22.39-1s0-15.81-10.44-24.58C1282.92,529.61,1278,534.27,1269.3,524.16Z"/><path class="cls-33" d="M1318.86,578.07c-12-18.7-23.88-31.13-27.65-31.44-15.49-1.26-26.9,11-17.2,24.1,6.79,9.17,16.29,17.47,32.87,30.42s10.64,11.88,27.95,24.27c13.13,9.39,27,20.49,27,20.49s15.42,3.7,11.79-4.07C1371.07,636.41,1337.4,607,1318.86,578.07Z"/><path class="cls-34" d="M1206.91,505.73l9.6,10.14s3,4.68,11.13-1.43c2.86-2.16,5.88-12,5.88-12l-10.9-8.61Z"/><path class="cls-33" d="M1215.9,469.8c-6.63-4.75-22-5.89-27.18,10.15-5.4,16.82,10.8,33.81,18.73,30.05,4.44-2.11,13.15-6.05,15.56-14.89C1225.72,485.15,1221.06,473.49,1215.9,469.8Z"/><path class="cls-37" d="M1250.11,468.88c-10.91-3.23-27-14.82-46.21-9.56-14.06,3.86-20.92,17.14-19,23.26,1.55,5.05,6.67,4.61,14.53,1.35,2.17,12.75,23.71,19.38,29.18,19.62,9.51.43,28.29-4.24,41.93-14.94,10-7.83,7.81-26.44,7.81-26.44S1263.75,472.92,1250.11,468.88Z"/><path class="cls-33" d="M1244.06,508.1c-6.91,0-15.84,14.58-22,21.43-2.31,2.57-12.17,13.71-17.79,19.27-1.08,3.31.61,11.77,1.87,15.17.29-.15.61-.31.89-.47,13.6-7.69,45.88-30.38,48-37.86C1258.26,514.36,1256,508.1,1244.06,508.1Z"/><path class="cls-33" d="M1281.47,628.82l-5.62,10.28s-.41,5.22-5.67,16.33c-1.72,3.64-3.64,10.13-2.93,12.69,1.23,4.46,5.35,6.9,9.83,1.84,7-8,7-16.05,12.08-18.62s6.66-8.92,4.2-12.24S1281.47,628.82,1281.47,628.82Z"/><path class="cls-33" d="M1205.65,548.46A84.12,84.12,0,0,0,1184,557c-12.37,7-19.83,6-23.93,7.23-3.84,1.15-4.67,3.63-.77,3.6,3.5,0,6.61.39,5.38,1.62a54.22,54.22,0,0,0-7,6.76c-5,5.53-5.76,12.21,8.22,6.68,3.48-1.38,12.29-10.36,15.66-11.29s22.39-4.88,30.31-10.94C1217.07,556.64,1205.65,548.46,1205.65,548.46Z"/><path class="cls-33" d="M1364.85,632.18l-5.62,10.29s-.41,5.22-5.67,16.32c-1.72,3.64-10,16.62-4,16.35,4.63-.21,8.6.44,13.08-4.61,7-7.95,4.76-13.26,9.88-15.83s6.66-8.92,4.2-12.23S1364.85,632.18,1364.85,632.18Z"/><polygon class="cls-41" points="345.92 640.12 427.62 687.29 427.62 578.35 345.92 531.18 345.92 640.12"/><polygon class="cls-23" points="345.92 531.18 427.62 578.35 435.31 573.85 353.61 526.68 345.92 531.18"/><polygon class="cls-42" points="427.62 687.29 435.31 682.79 435.31 573.85 427.62 578.35 427.62 687.29"/><rect class="cls-41" x="417.61" y="606.98" width="10.34" height="14.35"/><path class="cls-41" d="M416,605l-46.05-26.91c-14.46-8.34-36.53-9.26-49.05-2L16.8,751.61c-12.53,7.23-10.94,20,3.52,28.32l46,26.91c14.46,8.34,36.54,9.26,49.06,2L419.51,633.3C432,626.07,430.45,613.33,416,605Z"/><path class="cls-30" d="M416,593.66l-46.05-26.9c-14.46-8.35-36.53-9.27-49.05-2L16.8,740.29c-12.53,7.23-10.94,20,3.52,28.32l46,26.91c14.46,8.34,36.54,9.26,49.06,2L419.51,622C432,614.75,430.45,602,416,593.66Z"/><rect class="cls-30" x="407.27" y="596.73" width="20.69" height="14.37"/><rect class="cls-39" x="8.41" y="739.11" width="12.62" height="13.3"/><path class="cls-31" d="M416,580.93,369.94,554c-14.46-8.34-36.53-9.26-49.05-2L16.8,727.56c-12.53,7.23-10.94,20,3.52,28.32l46,26.91c14.46,8.34,36.54,9.26,49.06,2L419.51,609.25C432,602,430.45,589.28,416,580.93Z"/><polygon class="cls-41" points="0 839.69 81.7 886.86 81.7 777.93 0 730.76 0 839.69"/><polygon class="cls-23" points="0 730.76 81.7 777.93 89.4 773.43 7.7 726.26 0 730.76"/><polygon class="cls-42" points="81.7 886.86 89.4 882.36 89.4 773.43 81.7 777.93 81.7 886.86"/></g></g></svg>