<svg xmlns="http://www.w3.org/2000/svg" xmlns:xlink="http://www.w3.org/1999/xlink" viewBox="0 0 625.19 462.51"><defs><style>.cls-1{fill:none;}.cls-2{isolation:isolate;}.cls-3{clip-path:url(#clip-path);}.cls-4{fill:url(#Áåçûìÿííûé_ãðàäèåíò_173);}.cls-5{fill:#c0f8ff;}.cls-6{fill:#bae5ff;}.cls-7{fill:url(#Áåçûìÿííûé_ãðàäèåíò_39);}.cls-105,.cls-8,.cls-9{fill:#fff;}.cls-102,.cls-109,.cls-112,.cls-12,.cls-14,.cls-59,.cls-8,.cls-9{mix-blend-mode:soft-light;}.cls-102,.cls-103,.cls-109,.cls-118,.cls-35,.cls-53,.cls-57,.cls-60,.cls-9,.cls-91{opacity:0.5;}.cls-10{fill:url(#Áåçûìÿííûé_ãðàäèåíò_8);}.cls-11{fill:url(#Áåçûìÿííûé_ãðàäèåíò_19);}.cls-12{fill:#b2f7ff;}.cls-13{fill:url(#Áåçûìÿííûé_ãðàäèåíò_207);}.cls-15{fill:url(#Áåçûìÿííûé_ãðàäèåíò_251);}.cls-16{fill:url(#Áåçûìÿííûé_ãðàäèåíò_251-2);}.cls-17{fill:url(#Áåçûìÿííûé_ãðàäèåíò_251-3);}.cls-18{fill:#cd6870;opacity:0.3;}.cls-104,.cls-116,.cls-118,.cls-18,.cls-35,.cls-45,.cls-46,.cls-53,.cls-55,.cls-58,.cls-69,.cls-72,.cls-78,.cls-85,.cls-91,.cls-97{mix-blend-mode:multiply;}.cls-19{fill:url(#Áåçûìÿííûé_ãðàäèåíò_263);}.cls-20{fill:url(#Áåçûìÿííûé_ãðàäèåíò_263-2);}.cls-116,.cls-21,.cls-22,.cls-23,.cls-24,.cls-25,.cls-27{opacity:0.4;}.cls-21,.cls-22,.cls-23,.cls-24,.cls-25,.cls-27,.cls-34,.cls-57,.cls-60,.cls-68,.cls-73{mix-blend-mode:color-dodge;}.cls-21{fill:url(#Áåçûìÿííûé_ãðàäèåíò_363);}.cls-22{fill:url(#Áåçûìÿííûé_ãðàäèåíò_363-2);}.cls-23{fill:url(#Áåçûìÿííûé_ãðàäèåíò_363-3);}.cls-24{fill:url(#Áåçûìÿííûé_ãðàäèåíò_363-4);}.cls-25{fill:url(#Áåçûìÿííûé_ãðàäèåíò_363-5);}.cls-26{fill:url(#Áåçûìÿííûé_ãðàäèåíò_363-6);}.cls-27{fill:url(#Áåçûìÿííûé_ãðàäèåíò_363-7);}.cls-28{fill:#ffab66;}.cls-29{fill:#ffb366;}.cls-30{fill:#626819;}.cls-31{fill:#747927;}.cls-32{fill:#748a38;}.cls-33{fill:url(#Áåçûìÿííûé_ãðàäèåíò_36);}.cls-104,.cls-106,.cls-34,.cls-46,.cls-55,.cls-69,.cls-78{opacity:0.2;}.cls-34{fill:url(#Áåçûìÿííûé_ãðàäèåíò_363-8);}.cls-35{fill:#9c3468;}.cls-36{fill:url(#Áåçûìÿííûé_ãðàäèåíò_33);}.cls-37{fill:#6e5264;}.cls-38{fill:url(#Áåçûìÿííûé_ãðàäèåíò_13);}.cls-39{fill:#a182a5;}.cls-40{fill:#795c05;}.cls-41{fill:#702e14;}.cls-42{fill:#5b4b00;}.cls-43{fill:#ac9d00;}.cls-44{fill:#c2c000;}.cls-45,.cls-46{fill:#b03d70;}.cls-45,.cls-58{opacity:0.15;}.cls-47{fill:url(#Áåçûìÿííûé_ãðàäèåíò_65);}.cls-48{fill:url(#Áåçûìÿííûé_ãðàäèåíò_26);}.cls-49{fill:#2e96b6;}.cls-50{fill:url(#Áåçûìÿííûé_ãðàäèåíò_17);}.cls-51{fill:#97e1d2;}.cls-52{fill:#6cb1c2;}.cls-54{fill:#a23746;}.cls-55{fill:#884fcb;}.cls-112,.cls-56{opacity:0.7;}.cls-56{fill:url(#Áåçûìÿííûé_ãðàäèåíò_18);}.cls-57{fill:url(#Áåçûìÿííûé_ãðàäèåíò_112);}.cls-58{fill:#bf628b;}.cls-108,.cls-109,.cls-59{fill:#f8f3d2;}.cls-60{fill:url(#Áåçûìÿííûé_ãðàäèåíò_112-2);}.cls-61{fill:#3b4002;}.cls-62{fill:#52631c;}.cls-63{fill:#45570b;}.cls-64{fill:#9c860b;}.cls-65{fill:url(#Áåçûìÿííûé_ãðàäèåíò_353);}.cls-66{fill:url(#Áåçûìÿííûé_ãðàäèåíò_79);}.cls-67{fill:url(#Áåçûìÿííûé_ãðàäèåíò_342);}.cls-68,.cls-73{opacity:0.27;}.cls-68{fill:url(#Áåçûìÿííûé_ãðàäèåíò_52);}.cls-69,.cls-72,.cls-74{fill:#9e1822;}.cls-70{fill:url(#Áåçûìÿííûé_ãðàäèåíò_353-2);}.cls-71{fill:url(#Áåçûìÿííûé_ãðàäèåíò_355);}.cls-72,.cls-85,.cls-97{opacity:0.31;}.cls-73{fill:url(#Áåçûìÿííûé_ãðàäèåíò_301);}.cls-75{fill:url(#Áåçûìÿííûé_ãðàäèåíò_372);}.cls-76{fill:url(#Áåçûìÿííûé_ãðàäèåíò_372-2);}.cls-77{fill:url(#Áåçûìÿííûé_ãðàäèåíò_372-3);}.cls-116,.cls-78{fill:#b0434b;}.cls-79{fill:#9f2000;}.cls-80{fill:#ff9013;}.cls-81{fill:url(#Áåçûìÿííûé_ãðàäèåíò_190);}.cls-82{fill:#952900;}.cls-83{fill:url(#Áåçûìÿííûé_ãðàäèåíò_190-2);}.cls-84{fill:#e7e8ff;}.cls-85{fill:#d4b9cc;}.cls-86{fill:#5e0000;}.cls-87{fill:url(#Áåçûìÿííûé_ãðàäèåíò_190-3);}.cls-88{fill:url(#Áåçûìÿííûé_ãðàäèåíò_190-4);}.cls-89{fill:#ebedff;}.cls-90{fill:#b7bbff;}.cls-91,.cls-92{fill:#902c4f;}.cls-93{fill:#ffae13;}.cls-94{fill:url(#Áåçûìÿííûé_ãðàäèåíò_190-5);}.cls-95{fill:url(#Áåçûìÿííûé_ãðàäèåíò_190-6);}.cls-96{fill:#7e86ff;}.cls-97{fill:#9e618b;}.cls-98{fill:url(#Áåçûìÿííûé_ãðàäèåíò_190-7);}.cls-99{fill:url(#Áåçûìÿííûé_ãðàäèåíò_190-8);}.cls-100{fill:#6f57ff;}.cls-101{fill:url(#Áåçûìÿííûé_ãðàäèåíò_504);}.cls-102{fill:#ffffac;}.cls-103{fill:#f0f;}.cls-104{fill:#c24700;}.cls-107{fill:url(#Áåçûìÿííûé_ãðàäèåíò_504-2);}.cls-110{fill:#290d1a;}.cls-111{fill:#dd474c;}.cls-112{fill:#ffffa2;}.cls-113{fill:#ffffbd;}.cls-114{fill:#ff8367;}.cls-115{fill:#400d2b;}.cls-117{fill:#7777ae;}.cls-118{fill:#7e3d45;}.cls-119{fill:#9c96c4;}</style><clipPath id="clip-path" transform="translate(19.58 35.13)"><rect class="cls-1" width="600" height="400"/></clipPath><linearGradient id="Áåçûìÿííûé_ãðàäèåíò_173" x1="319.58" y1="248.1" x2="319.58" y2="35.13" gradientUnits="userSpaceOnUse"><stop offset="0.08" stop-color="#baffd6"/><stop offset="1" stop-color="#00d2ff"/></linearGradient><linearGradient id="Áåçûìÿííûé_ãðàäèåíò_39" x1="319.14" y1="435.13" x2="319.14" y2="245.18" gradientUnits="userSpaceOnUse"><stop offset="0" stop-color="#0045a1"/><stop offset="1" stop-color="#00a5d9"/></linearGradient><linearGradient id="Áåçûìÿííûé_ãðàäèåíò_8" x1="320.08" y1="435.13" x2="320.08" y2="267.13" gradientUnits="userSpaceOnUse"><stop offset="0" stop-color="#545c1e"/><stop offset="1" stop-color="#898606"/></linearGradient><linearGradient id="Áåçûìÿííûé_ãðàäèåíò_19" x1="321.45" y1="239.81" x2="321.45" y2="179.01" gradientUnits="userSpaceOnUse"><stop offset="0" stop-color="#83f9e0"/><stop offset="1" stop-color="#27a0da"/></linearGradient><linearGradient id="Áåçûìÿííûé_ãðàäèåíò_207" x1="309.32" y1="243.36" x2="309.32" y2="197.81" gradientUnits="userSpaceOnUse"><stop offset="0" stop-color="#61ecd8"/><stop offset="1" stop-color="#249ed7"/></linearGradient><linearGradient id="Áåçûìÿííûé_ãðàäèåíò_251" x1="115.87" y1="244.91" x2="115.87" y2="215.26" gradientUnits="userSpaceOnUse"><stop offset="0" stop-color="#ffb848"/><stop offset="1" stop-color="#f78f2e"/></linearGradient><linearGradient id="Áåçûìÿííûé_ãðàäèåíò_251-2" x1="259.57" y1="245.18" x2="259.57" y2="236.16" xlink:href="#Áåçûìÿííûé_ãðàäèåíò_251"/><linearGradient id="Áåçûìÿííûé_ãðàäèåíò_251-3" x1="566" y1="244.91" x2="566" y2="198.57" xlink:href="#Áåçûìÿííûé_ãðàäèåíò_251"/><linearGradient id="Áåçûìÿííûé_ãðàäèåíò_263" x1="579.81" y1="245.09" x2="579.81" y2="228.29" gradientUnits="userSpaceOnUse"><stop offset="0" stop-color="#ffb848"/><stop offset="1" stop-color="#e99b4b"/></linearGradient><linearGradient id="Áåçûìÿííûé_ãðàäèåíò_263-2" x1="615.71" y1="244.91" x2="615.71" y2="228.69" xlink:href="#Áåçûìÿííûé_ãðàäèåíò_263"/><linearGradient id="Áåçûìÿííûé_ãðàäèåíò_363" x1="567.5" y1="240.16" x2="567.5" y2="198.56" gradientUnits="userSpaceOnUse"><stop offset="0" stop-color="#517cfd"/><stop offset="1" stop-color="#65ffff"/></linearGradient><linearGradient id="Áåçûìÿííûé_ãðàäèåíò_363-2" x1="588.56" y1="238.62" x2="588.56" y2="224.81" xlink:href="#Áåçûìÿííûé_ãðàäèåíò_363"/><linearGradient id="Áåçûìÿííûé_ãðàäèåíò_363-3" x1="257.31" y1="244.77" x2="257.31" y2="236.16" xlink:href="#Áåçûìÿííûé_ãðàäèåíò_363"/><linearGradient id="Áåçûìÿííûé_ãðàäèåíò_363-4" x1="145.16" y1="242.73" x2="145.16" y2="234.39" xlink:href="#Áåçûìÿííûé_ãðàäèåíò_363"/><linearGradient id="Áåçûìÿííûé_ãðàäèåíò_363-5" x1="114.81" y1="244.72" x2="114.81" y2="240.55" xlink:href="#Áåçûìÿííûé_ãðàäèåíò_363"/><linearGradient id="Áåçûìÿííûé_ãðàäèåíò_363-6" x1="504.27" y1="244.99" x2="504.27" y2="244.91" xlink:href="#Áåçûìÿííûé_ãðàäèåíò_363"/><linearGradient id="Áåçûìÿííûé_ãðàäèåíò_363-7" x1="123.91" y1="244.32" x2="123.91" y2="215.26" xlink:href="#Áåçûìÿííûé_ãðàäèåíò_363"/><linearGradient id="Áåçûìÿííûé_ãðàäèåíò_36" x1="475.7" y1="245.18" x2="475.7" y2="228.44" gradientUnits="userSpaceOnUse"><stop offset="0" stop-color="#ff8122"/><stop offset="1" stop-color="#cf6448"/></linearGradient><linearGradient id="Áåçûìÿííûé_ãðàäèåíò_363-8" x1="412.24" y1="236.81" x2="538.2" y2="236.81" xlink:href="#Áåçûìÿííûé_ãðàäèåíò_363"/><linearGradient id="Áåçûìÿííûé_ãðàäèåíò_33" x1="18.74" y1="287.8" x2="620.57" y2="287.8" gradientUnits="userSpaceOnUse"><stop offset="0" stop-color="#d9c9cc"/><stop offset="1" stop-color="#e0cdcc"/></linearGradient><linearGradient id="Áåçûìÿííûé_ãðàäèåíò_13" x1="319.58" y1="435.13" x2="319.58" y2="278.32" gradientUnits="userSpaceOnUse"><stop offset="0" stop-color="#df8f7c"/><stop offset="1" stop-color="#e0cdcc"/></linearGradient><linearGradient id="Áåçûìÿííûé_ãðàäèåíò_65" x1="332.06" y1="435.13" x2="332.06" y2="286.13" gradientUnits="userSpaceOnUse"><stop offset="0" stop-color="#8fd2d0"/><stop offset="1" stop-color="#b3fff8"/></linearGradient><linearGradient id="Áåçûìÿííûé_ãðàäèåíò_26" x1="332.06" y1="435.13" x2="332.06" y2="286.13" gradientUnits="userSpaceOnUse"><stop offset="0" stop-color="#39489f"/><stop offset="1" stop-color="#5cacd3"/></linearGradient><linearGradient id="Áåçûìÿííûé_ãðàäèåíò_17" x1="478.58" y1="341.19" x2="547.65" y2="341.19" gradientUnits="userSpaceOnUse"><stop offset="0" stop-color="#3386d3"/><stop offset="1" stop-color="#39489f"/></linearGradient><linearGradient id="Áåçûìÿííûé_ãðàäèåíò_18" x1="332.5" y1="436.3" x2="332.5" y2="287.39" gradientUnits="userSpaceOnUse"><stop offset="0" stop-color="#1f6395"/><stop offset="1" stop-color="#57f5b1"/></linearGradient><linearGradient id="Áåçûìÿííûé_ãðàäèåíò_112" x1="262.88" y1="313.68" x2="262.88" y2="287.39" gradientUnits="userSpaceOnUse"><stop offset="0"/><stop offset="0.12" stop-color="#020403"/><stop offset="0.25" stop-color="#06110c"/><stop offset="0.38" stop-color="#0d261b"/><stop offset="0.51" stop-color="#184331"/><stop offset="0.64" stop-color="#25694c"/><stop offset="0.78" stop-color="#36986d"/><stop offset="0.91" stop-color="#49cd94"/><stop offset="1" stop-color="#57f5b1"/></linearGradient><linearGradient id="Áåçûìÿííûé_ãðàäèåíò_112-2" x1="243.84" y1="379.58" x2="243.84" y2="289.51" xlink:href="#Áåçûìÿííûé_ãðàäèåíò_112"/><linearGradient id="Áåçûìÿííûé_ãðàäèåíò_353" x1="451.45" y1="136.14" x2="598.66" y2="164.08" gradientTransform="matrix(-1, 0, 0, 1, 1025.34, 0)" gradientUnits="userSpaceOnUse"><stop offset="0" stop-color="#ba0a4c"/><stop offset="1" stop-color="#fa3d4f"/></linearGradient><linearGradient id="Áåçûìÿííûé_ãðàäèåíò_79" x1="114.83" y1="-301.14" x2="114.83" y2="-304.72" gradientTransform="matrix(-0.04, 1, 1.17, 0.05, 870.73, -5.18)" gradientUnits="userSpaceOnUse"><stop offset="0" stop-color="#7c161f"/><stop offset="1" stop-color="#bf492b"/></linearGradient><linearGradient id="Áåçûìÿííûé_ãðàäèåíò_342" x1="453.79" y1="123.75" x2="598.1" y2="151.14" gradientTransform="matrix(-1, 0, 0, 1, 1025.34, 0)" gradientUnits="userSpaceOnUse"><stop offset="0" stop-color="#f10a75"/><stop offset="1" stop-color="#fa6e68"/></linearGradient><linearGradient id="Áåçûìÿííûé_ãðàäèåíò_52" x1="555.13" y1="113.8" x2="555.68" y2="95.29" gradientTransform="matrix(-1, 0, 0, 1, 1025.34, 0)" gradientUnits="userSpaceOnUse"><stop offset="0"/><stop offset="1" stop-color="#d5ff5e"/></linearGradient><linearGradient id="Áåçûìÿííûé_ãðàäèåíò_353-2" x1="453.67" y1="126.41" x2="598.32" y2="153.87" xlink:href="#Áåçûìÿííûé_ãðàäèåíò_353"/><linearGradient id="Áåçûìÿííûé_ãðàäèåíò_355" x1="524.88" y1="270.6" x2="524.88" y2="105.85" gradientTransform="matrix(-1, 0, 0, 1, 1044.92, 35.13)" gradientUnits="userSpaceOnUse"><stop offset="0" stop-color="#bf492b"/><stop offset="1" stop-color="#7c161f"/></linearGradient><linearGradient id="Áåçûìÿííûé_ãðàäèåíò_301" x1="553.54" y1="166.13" x2="555.4" y2="104.16" gradientTransform="matrix(-1, 0, 0, 1, 1025.34, 0)" gradientUnits="userSpaceOnUse"><stop offset="0" stop-color="#d5ff5e"/><stop offset="1"/></linearGradient><linearGradient id="Áåçûìÿííûé_ãðàäèåíò_372" x1="443.74" y1="146.44" x2="588.77" y2="102.12" gradientTransform="matrix(-1, 0, 0, 1, 1025.34, 0)" gradientUnits="userSpaceOnUse"><stop offset="0" stop-color="#f10a75"/><stop offset="1" stop-color="#fa8a74"/></linearGradient><linearGradient id="Áåçûìÿííûé_ãðàäèåíò_372-2" x1="439.44" y1="132.35" x2="584.47" y2="88.03" xlink:href="#Áåçûìÿííûé_ãðàäèåíò_372"/><linearGradient id="Áåçûìÿííûé_ãðàäèåíò_372-3" x1="446.04" y1="153.96" x2="591.07" y2="109.64" xlink:href="#Áåçûìÿííûé_ãðàäèåíò_372"/><linearGradient id="Áåçûìÿííûé_ãðàäèåíò_190" x1="359.54" y1="275.32" x2="423.72" y2="270.44" gradientUnits="userSpaceOnUse"><stop offset="0" stop-color="#c35d2f"/><stop offset="1" stop-color="#9f1a13"/></linearGradient><linearGradient id="Áåçûìÿííûé_ãðàäèåíò_190-2" x1="359.58" y1="285" x2="440.31" y2="278.86" xlink:href="#Áåçûìÿííûé_ãðàäèåíò_190"/><linearGradient id="Áåçûìÿííûé_ãðàäèåíò_190-3" x1="381.36" y1="288.46" x2="449.32" y2="283.3" xlink:href="#Áåçûìÿííûé_ãðàäèåíò_190"/><linearGradient id="Áåçûìÿííûé_ãðàäèåíò_190-4" x1="375.21" y1="281.1" x2="443.45" y2="275.91" xlink:href="#Áåçûìÿííûé_ãðàäèåíò_190"/><linearGradient id="Áåçûìÿííûé_ãðàäèåíò_190-5" x1="398.94" y1="290.58" x2="481.65" y2="284.29" xlink:href="#Áåçûìÿííûé_ãðàäèåíò_190"/><linearGradient id="Áåçûìÿííûé_ãðàäèåíò_190-6" x1="398.98" y1="303.06" x2="503.04" y2="295.14" xlink:href="#Áåçûìÿííûé_ãðàäèåíò_190"/><linearGradient id="Áåçûìÿííûé_ãðàäèåíò_190-7" x1="427.06" y1="307.52" x2="514.64" y2="300.86" xlink:href="#Áåçûìÿííûé_ãðàäèåíò_190"/><linearGradient id="Áåçûìÿííûé_ãðàäèåíò_190-8" x1="419.12" y1="298.03" x2="507.08" y2="291.34" xlink:href="#Áåçûìÿííûé_ãðàäèåíò_190"/><linearGradient id="Áåçûìÿííûé_ãðàäèåíò_504" x1="358.8" y1="376.95" x2="358.8" y2="330.92" gradientTransform="matrix(-1, 0, 0, 1, 746.66, 35.13)" gradientUnits="userSpaceOnUse"><stop offset="0" stop-color="#ffa031"/><stop offset="1" stop-color="#ffe538"/></linearGradient><linearGradient id="Áåçûìÿííûé_ãðàäèåíò_504-2" x1="358.8" y1="375.28" x2="358.8" y2="329.25" gradientTransform="translate(746.66 890.28) rotate(180) scale(1 1.3)" xlink:href="#Áåçûìÿííûé_ãðàäèåíò_504"/></defs><g class="cls-2"><g id="Layer_2" data-name="Layer 2"><g id="pool"><g class="cls-3"><polygon class="cls-4" points="619.58 35.13 619.58 248.1 594.5 247.99 593.19 247.98 579.68 247.92 506.76 247.58 501.55 247.56 474.3 247.43 467.82 247.4 431.81 247.23 431.8 247.23 19.58 245.3 19.58 35.13 619.58 35.13"/><path class="cls-5" d="M205.45,164.46s28.1-3.25,46.71-7.13a299.15,299.15,0,0,1,37.58-5s-21.38.84-21.38,4.57,58.71,2.4,78.71,2.4,82.68,8.31,82.68,8.31-82,.14-103.35-2.59-40.66,1.09-70,1.09S205.45,164.46,205.45,164.46Z" transform="translate(19.58 35.13)"/><path class="cls-6" d="M205.45,164.46s49.05.39,71.55-1.78,76.16,0,76.16,0l-5.41,1.81s73.75,3.11,82,3.11H356.38c-16.38,0-24.63-3.09-34.76-3.09s-52.95,3.09-72,3.09S205.45,164.46,205.45,164.46Z" transform="translate(19.58 35.13)"/><path class="cls-5" d="M289.74,152.32H317.6S304.17,146,289.74,152.32Z" transform="translate(19.58 35.13)"/><path class="cls-5" d="M249.76,157.82l-8,2.14s-1.13,0-3.59-.07c-6.19-.18-20.81-.84-47-3.22C154.67,153.33,101.54,160,82.94,160c-17.65,0-35.94-1.91-37.77-2.11H45l32.1-2.11s-15.27-3.41-26.86-3.41S0,150.91,0,150.91l1.24-7s65.27-2.2,95.05,5.63,100.25-2.18,108.82-2.18S249.76,157.82,249.76,157.82Z" transform="translate(19.58 35.13)"/><path class="cls-6" d="M0,147.38s19.62,2.12,52.75,3,46.75,3.24,46.75,3.24l-24,2.22S65,153,48.88,153-.89,151.61-.89,151.61Z" transform="translate(19.58 35.13)"/><path class="cls-6" d="M238.18,159.89c-6.19-.18-20.81-.84-47-3.22C154.67,153.33,101.54,160,82.94,160c-17.65,0-35.94-1.91-37.77-2.11,2.21.14,29.12,1.76,43.33,0,14.83-1.84,73.67-5.52,93.67-5.52S238.18,159.89,238.18,159.89Z" transform="translate(19.58 35.13)"/><path class="cls-6" d="M169.37,153.67s27-3.12,39.8-2.06l-10.84,2.06Z" transform="translate(19.58 35.13)"/><path class="cls-6" d="M241.75,166s8.5-6,17.87-6c0,0-8.87,3-12,6.16A3.82,3.82,0,0,1,241.75,166Z" transform="translate(19.58 35.13)"/><path class="cls-5" d="M398.55,0s-31.84,20.46-49,18.13-60.41,6.29-84.48,10.1-39.66,11.42-39.66,11.42l11.14,3.67s-12.85,4.5-38.66,9.08-76.32,5.24-79.26,7.47S114.37,70.36,111,73c-1.95,1.49-15.71,2.45-27.12,3h-.1c-8.49.41-15.66.59-15.66.59s18.28-4.07,27.52-7.7,18.79-9,20.2-10,67-9.42,86.93-20.18S300.73,0,300.73,0Z" transform="translate(19.58 35.13)"/><path class="cls-5" d="M68.08,76.56S54.5,80.67,54.5,88Z" transform="translate(19.58 35.13)"/><path class="cls-5" d="M563.44,0a64.08,64.08,0,0,1-30.36,27.08c-21.51,9.29-35.33,15.4-35.33,15.4s6.62-.84,5,.79S463.27,48.05,450,49.91,394.5,59.2,378.57,61c-13.93,1.56-28.28-2.19-34.41-3.15h0a13.91,13.91,0,0,0-2.07-.22c-4.13,0-18.72,3.37-18.72,3.37s9.3-6,20-6,27-10.09,45.6-15.4c15.2-4.34,36.74-7.64,44.11-8.71-2.58.15-4.53-.76,8.16-7.75C462.42,11.42,493.15,0,493.15,0Z" transform="translate(19.58 35.13)"/><path class="cls-5" d="M317.6,61.35S307.48,65,285.74,65C285.74,65,295.87,57.37,317.6,61.35Z" transform="translate(19.58 35.13)"/><path class="cls-6" d="M398.55,0s-31.84,20.46-49,18.13-60.41,6.29-84.48,10.1-39.66,11.42-39.66,11.42l11.14,3.67s-12.85,4.5-38.66,9.08-76.32,5.24-79.26,7.47S114.37,70.36,111,73c-1.95,1.49-15.71,2.45-27.12,3a84,84,0,0,0,12.91-2.21c12.75-3.37,14.19-8.31,18.25-12.37s23.12-3.64,47.5-7.38,55.83-14.33,55.83-14.33c17.84-8.67,71.84-23,71.84-23l-8-3.5A249.34,249.34,0,0,0,330,9.67,436.7,436.7,0,0,0,374.67,0Z" transform="translate(19.58 35.13)"/><path class="cls-6" d="M344.13,57.82h0Z" transform="translate(19.58 35.13)"/><path class="cls-6" d="M563.44,0a64.08,64.08,0,0,1-30.36,27.08c-21.51,9.29-35.33,15.4-35.33,15.4s6.62-.84,5,.79S463.27,48.05,450,49.91,394.5,59.2,378.57,61c-13.93,1.56-28.28-2.19-34.41-3.15,1,.14,23.59,3.35,36.09.67C393,55.76,422.8,43.25,422.8,43.25h-8.3s17.75-4.5,45.79-12.57S499.36,12.5,499.36,12.5L479.08,14c20.33-7.25,62-14,62-14Z" transform="translate(19.58 35.13)"/><path class="cls-6" d="M413.84,43.23s-8.12-.29-11.71,1.63l-3.58,1.92S412.13,44.94,413.84,43.23Z" transform="translate(19.58 35.13)"/><rect class="cls-7" x="18.69" y="245.18" width="600.89" height="189.96"/><rect class="cls-8" y="245.09" width="622.1" height="0.67"/><polygon class="cls-9" points="622.1 253.89 0 253.89 0 261.31 622.1 257.13 622.1 253.89"/><polygon class="cls-10" points="620.57 267.13 19.58 267.13 19.58 435.13 619.58 435.13 620.57 267.13"/><polygon class="cls-11" points="623.28 179.01 590.08 182.42 561.62 205.71 552.52 209.11 515.58 230.31 483.9 227.02 439.13 235.42 350.34 235.42 298.6 212.76 262.81 214.59 243.84 221.17 231.57 224.77 217.53 235.42 188.21 235.42 168.38 228.84 133.02 228.84 104.99 235.42 70.07 230.31 58.86 235.42 51.96 211.66 19.62 188.3 19.63 237.47 623.28 239.81 623.28 179.01"/><polygon class="cls-12" points="561.62 205.71 590.08 182.42 623.28 179.01 623.28 197.76 575.27 208.12 561.62 205.71"/><polygon class="cls-12" points="262.81 214.59 288.98 222.26 320.3 222.26 298.6 212.76 262.81 214.59"/><polygon class="cls-12" points="562.34 209.41 562.34 217.51 581.31 223.89 601.72 224.77 562.34 209.41"/><polygon class="cls-13" points="19.65 197.81 41.77 202.23 43.93 207.5 55.07 209.91 57.63 212.79 97.29 220.11 98.52 222.84 137.68 229.34 212.33 229.34 227.29 217.81 247.87 218.07 250.62 222.84 275.83 227.37 276.65 230.05 329.09 232.63 331.98 230.64 347.04 227.37 353.74 227.37 373.15 225.08 435.16 234.91 460.62 219.07 465.74 217.81 478.43 210.49 504.33 210.49 511.12 205.84 534.44 204.21 563.16 210.49 599.02 243.36 19.62 243.36 19.65 197.81"/><g class="cls-14"><polygon class="cls-12" points="507.93 205.84 526.61 207.5 534.44 204.21 507.93 205.84"/><polygon class="cls-12" points="504.33 210.49 511.12 211.45 491.09 214.04 478.43 210.49 504.33 210.49"/><polygon class="cls-12" points="491.1 226.14 497.2 226.55 477.17 229.15 465.19 227.37 491.1 226.14"/><polygon class="cls-12" points="460.62 219.07 478.43 220.59 465.74 217.81 460.62 219.07"/><polygon class="cls-12" points="331.98 230.64 345.01 230.64 353.87 230.05 353.74 227.37 343.85 227.37 331.98 230.64"/><polygon class="cls-12" points="325.9 232.63 329.94 234.53 271.74 233.58 273.46 230.05 325.9 232.63"/><polygon class="cls-12" points="272.64 227.37 263.24 229 249.16 227.37 247.43 222.84 272.64 227.37"/><polygon class="cls-12" points="247.87 218.07 238.44 220.59 225.98 220.59 227.29 217.81 247.87 218.07"/><polygon class="cls-12" points="97.29 220.11 74.94 220.59 53.82 220.35 57.63 212.79 97.29 220.11"/><polygon class="cls-12" points="55.07 209.91 48.88 212.79 36.05 212.79 43.93 207.5 55.07 209.91"/><polygon class="cls-12" points="41.77 202.23 35.48 203.99 19.65 203.11 19.65 197.81 41.77 202.23"/><polygon class="cls-12" points="27.34 219.16 34.63 220.11 41.17 220.11 34.25 222.84 27.34 219.16"/><polygon class="cls-12" points="57.63 229.13 67.56 230.05 82.06 229.59 71.44 233.07 60.52 231.1 57.63 229.13"/></g><polygon class="cls-15" points="210.92 244.91 20.82 244.91 20.84 232.53 29.66 240.48 37.04 238.36 66.2 243.13 71.29 239.86 88.64 236.77 93.65 230.91 132.08 226.53 147.89 217.43 172.28 215.26 189.12 232.27 196.28 234.12 210.79 244.3 210.79 244.32 210.91 244.87 210.92 244.91"/><polygon class="cls-16" points="303.69 243.59 305.32 245.18 213.82 244.99 213.84 244.94 213.9 244.77 213.9 244.75 230.72 241.86 253.58 242.87 273.55 236.16 280.31 238.54 300.72 242.87 303.69 243.59 303.69 243.59"/><polygon class="cls-17" points="625.19 198.57 625.18 244.91 506.81 244.85 506.81 244.85 507.12 242.28 509.82 240.16 526.07 238.61 528.67 231.55 568.76 216.57 576.59 208.4 625.19 198.57"/><polygon class="cls-9" points="576.59 208.39 587.56 212.27 606.24 209.8 619.22 211.24 625.18 211.24 625.19 198.56 576.59 208.39"/><polygon class="cls-9" points="568.76 216.56 573.5 219.02 581.71 220.35 567.76 234.85 568.95 223.6 551.53 228.03 540.94 233.06 528.67 231.55 568.76 216.56"/><polygon class="cls-9" points="586.41 224.81 577.89 228.29 588.63 230.15 598.88 228.1 603.46 224.81 586.41 224.81"/><polygon class="cls-9" points="548.88 240.88 565.17 238.23 560.27 242.34 548.88 240.88"/><polygon class="cls-9" points="526.07 238.62 533.78 240.28 507.12 242.28 509.82 240.16 526.07 238.62"/><polygon class="cls-9" points="273.55 236.16 275.35 237.82 272.46 240.05 260.14 241.56 253.58 242.87 273.55 236.16"/><polygon class="cls-9" points="235.53 243.09 235.53 244.38 213.84 244.94 213.9 244.77 213.9 244.75 230.72 241.86 232.1 242.21 235.53 243.09"/><polygon class="cls-9" points="172.28 215.25 155.14 221.74 142.95 222.6 147.89 217.43 172.28 215.25"/><polygon class="cls-9" points="196.28 234.12 184.94 236.51 189.13 232.27 196.28 234.12"/><polygon class="cls-9" points="132.08 226.53 140.7 228.69 111.23 234.39 96.66 234.39 93.65 230.91 132.08 226.53"/><polygon class="cls-9" points="88.65 236.77 92.84 237.7 95.07 240.15 71.28 239.86 88.65 236.77"/><polygon class="cls-9" points="37.04 238.36 35.52 240.82 30.03 242.73 29.67 240.48 37.04 238.36"/><polygon class="cls-9" points="134.85 236.77 145.78 234.39 158.58 236.51 141.76 238.46 134.85 236.77"/><polygon class="cls-9" points="108.91 242.01 124.54 240.55 119.64 242.73 108.91 242.01"/><polygon class="cls-9" points="281.57 243.08 289.09 241.56 286.71 243.41 281.57 243.08"/><polygon class="cls-9" points="612.66 224.81 609.88 228.69 625.19 230.15 625.19 221.74 612.66 224.81"/><polygon class="cls-18" points="606.24 209.8 625.18 211.24 625.18 245.09 588.08 244.98 506.81 244.85 507.12 242.28 533.78 240.28 540.94 233.06 551.53 228.03 568.95 223.6 567.76 234.85 581.71 220.35 587.56 212.27 606.24 209.8"/><polygon class="cls-18" points="625.19 230.15 619.02 244.71 625.18 244.91 625.19 230.15"/><polygon class="cls-18" points="560.27 242.34 560.27 244.91 566.83 244.98 565.17 238.23 560.27 242.34"/><polygon class="cls-19" points="577.89 228.29 571 245.09 586.63 244.98 588.63 230.15 577.89 228.29"/><polygon class="cls-20" points="609.88 228.69 606.24 244.91 619.02 244.71 625.19 230.15 609.88 228.69"/><polygon class="cls-18" points="275.35 237.82 279.13 240.05 277.24 242.47 265.01 245.09 305.07 245.03 303.69 243.59 280.31 238.54 273.55 236.16 275.35 237.82"/><polygon class="cls-18" points="253.58 242.87 255.58 243.84 235.1 244.97 235.53 244.38 235.53 243.08 230.72 241.86 253.58 242.87"/><polygon class="cls-18" points="210.91 244.87 140.7 244.91 141.76 238.46 158.58 236.51 145.78 234.38 155.14 221.73 168.25 216.78 172.28 215.26 189.12 232.27 196.28 234.12 210.79 244.3 210.79 244.32 210.91 244.87"/><polygon class="cls-18" points="140.7 228.69 141.56 235.31 134.85 236.77 130.9 244.32 120.04 244.91 119.64 242.73 124.54 240.55 108.91 242.01 105.07 244.72 93.65 245.09 95.07 240.15 92.84 237.7 96.66 234.39 111.23 234.39 140.7 228.69"/><polygon class="cls-18" points="37.04 238.36 35.52 240.82 46.92 244.87 66.13 244.72 66.2 243.13 37.04 238.36"/><polygon class="cls-21" points="625.19 198.56 576.59 208.39 568.76 216.56 528.67 231.55 526.07 238.62 509.82 240.16 526.8 238.77 529.15 231.94 569.28 216.97 578.22 208.65 625.19 198.56"/><polygon class="cls-22" points="573.66 238.62 577.89 228.29 586.41 224.81 603.46 224.81 586.63 225.38 578.42 228.69 573.66 238.62"/><polygon class="cls-23" points="300.72 242.87 280.57 238.81 273.62 236.59 254.31 243.22 232.1 242.21 230.72 242.15 213.9 244.77 213.9 244.75 230.72 241.86 253.58 242.87 273.55 236.16 280.31 238.54 300.72 242.87"/><polygon class="cls-24" points="131.73 242.73 134.85 236.77 145.78 234.39 158.58 236.51 145.9 234.85 135.87 237.09 131.73 242.73"/><polygon class="cls-25" points="124.54 240.55 108.91 242.01 105.07 244.72 109.37 242.2 124.54 240.55"/><polygon class="cls-26" points="504.31 244.91 504.24 244.99 504.31 244.91 504.31 244.91"/><polygon class="cls-27" points="210.79 244.3 210.79 244.32 196.1 234.38 188.95 232.56 171.63 216.57 168.25 216.78 147.89 218.06 132.29 227.23 93.81 231.34 88.91 237.3 71.29 240.54 66.2 243.79 37.04 238.36 66.2 243.13 71.29 239.86 88.64 236.77 93.65 230.91 132.08 226.53 147.89 217.43 172.28 215.26 189.12 232.27 196.28 234.12 210.79 244.3"/><polygon class="cls-28" points="587.67 229.98 588.41 231.72 589.01 230.07 587.67 229.98"/><polygon class="cls-28" points="559.41 242.17 561.24 241.53 560.27 244.1 559.41 242.17"/><polygon class="cls-29" points="539.45 232.88 539.16 234.85 542.01 232.55 539.45 232.88"/><polygon class="cls-29" points="586.08 211.75 586.08 214.31 588.63 212.13 586.08 211.75"/><polygon class="cls-29" points="154.42 221.79 153.95 223.34 156.38 221.26 154.42 221.79"/><polygon class="cls-29" points="95.81 233.41 95.65 235.26 97.75 234.34 95.81 233.41"/><polygon class="cls-29" points="119.08 242.69 120.77 242.23 119.82 243.73 119.08 242.69"/><polygon class="cls-18" points="160.6 244.87 158.58 236.51 145.78 234.39 153.95 223.34 156.38 221.26 168.25 216.78 171.63 216.57 188.95 232.56 184.94 236.51 187.04 244.72 160.6 244.87"/><polygon class="cls-18" points="126.32 244.94 124.54 240.55 108.91 242.01 111.23 234.39 140.7 228.69 141.56 235.31 134.85 236.77 130.83 244.87 126.32 244.94"/><polygon class="cls-18" points="566.83 244.98 565.17 238.23 548.88 240.88 542.01 232.55 551.53 228.03 568.95 223.6 567.76 234.85 571 245.09 566.83 244.98"/><polygon class="cls-18" points="604.18 244.98 603.46 224.81 586.41 224.81 588.63 212.13 606.24 209.8 625.18 211.24 625.19 221.74 612.66 224.81 609.55 230.15 606.24 244.91 604.18 244.98"/><path class="cls-30" d="M269.55,232s5.49-50.19,5.8-71c.34-22.64.34-59.63.34-59.63l1.44.35v62c0,11.43-3.56,68.25-3.56,68.25Z" transform="translate(19.58 35.13)"/><polygon class="cls-31" points="296.71 131.04 285.8 123.67 277.21 124.51 272.92 125.63 273.67 128.43 271.05 126.75 267.97 132.42 270.58 138.98 284.81 132.42 292.19 135.9 298.41 133.69 296.71 131.04"/><polygon class="cls-30" points="292.19 142.06 292.19 154.1 299.18 162.78 300.44 155.04 301.69 143.55 295.27 136.54 292.19 142.06"/><polygon class="cls-32" points="296.07 140.39 295.38 149 299.43 147.2 295.94 149.87 296.98 155.85 301.23 159.69 302.97 158.65 302.06 159.69 306.71 163.19 308.76 165.9 310.51 155.35 309.69 152.49 305.59 151.44 309.13 151.44 308.24 146.07 298.5 137.24 296.71 136.88 296.07 140.39"/><path class="cls-32" d="M277.13,101.75l-4.52,10.06-8.45-2.13,7.36,3-.87,3-7.6-3,6.5,3.63-9.3,6.49-1.68,3.52-5.23-9.49,2.12-5.23,5.44-.82h-5.44L263.7,104l5.05-.56-4-.31s10-1.76,10.9-1.76A3,3,0,0,1,277.13,101.75Z" transform="translate(19.58 35.13)"/><polygon class="cls-32" points="295.27 136.81 303.03 133.01 312.51 132.42 313.12 133.18 308.62 133.52 314.81 134.61 318.62 138.77 313.65 139.53 318.62 139.53 321.65 144.4 317.61 153.26 317.1 150.34 307.78 148.12 310.84 142.84 307.27 147.05 299.96 140.4 297.69 137.74 296.18 138.01 295.27 136.81"/><polygon class="cls-32" points="300.44 134.28 307.18 127.49 304.38 127.49 307.18 126.38 306.44 122.26 291.1 119.56 284.81 121.5 289.42 120.96 289.13 124.51 292.92 124.98 289.13 125.91 292.92 131.04 296.71 132.42 283.01 128.69 275.16 129.18 280.11 131.04 274.41 130.39 269.37 134.28 267.97 143.46 269.18 147.82 270.58 143.93 280.2 140.5 284.03 137.56 285.9 133.69 285.43 137.56 294.93 137.56 300.44 134.28"/><polygon class="cls-30" points="307.27 147.05 297.69 137.74 296.18 138.01 295.38 141.1 307.27 147.05"/><polygon class="cls-30" points="285.43 137.56 290.56 137.56 296.71 136.88 288.31 139.6 283.28 139.17 288.33 138.61 284.37 138.29 285.43 137.56"/><polygon class="cls-30" points="289.13 125.91 285.8 123.67 288.69 130.23 296.71 132.42 292.92 131.04 289.13 125.91"/><polygon class="cls-33" points="431.15 242.5 435.22 239.52 444.34 239.7 447.37 237.23 462.55 236.02 464.75 233.85 474.94 229.47 485.82 228.44 491.62 232.69 503.03 232.52 509.43 238.17 514.1 239.3 519.37 242.59 538.2 243.1 539.16 245.18 412.24 245.18 431.15 242.5"/><polygon class="cls-9" points="485.82 228.44 487.05 231.01 477.38 231.94 474.94 229.47 485.82 228.44"/><polygon class="cls-9" points="491.62 232.69 493.26 234.78 502.73 234.83 503.03 232.52 491.62 232.69"/><polygon class="cls-9" points="493.52 239.64 474.32 239.54 464.45 238.33 474.43 241.81 493.52 239.64 493.52 239.64"/><polygon class="cls-9" points="462.55 236.02 463.98 237.35 448.85 239.69 447.37 237.23 462.55 236.02"/><polygon class="cls-9" points="444.34 239.7 446.04 240.92 436.47 240.92 435.22 239.52 444.34 239.7"/><polygon class="cls-9" points="509.43 238.17 506.76 239.1 500.09 239.51 509.43 240.92 514.1 239.3 509.43 238.17"/><polygon class="cls-9" points="519.37 242.59 516.15 243.53 538.24 243.94 538.2 243.1 519.37 242.59"/><polygon class="cls-9" points="448.12 243.02 452.82 242.61 457.83 241.44 456.18 243.79 448.12 243.02"/><polygon class="cls-34" points="412.24 245.18 431.15 242.5 435.22 239.52 444.34 239.7 447.37 237.23 462.55 236.02 464.75 233.85 474.94 229.47 485.82 228.44 491.62 232.69 503.03 232.52 509.43 238.17 514.1 239.3 519.37 242.59 538.2 243.1 518.72 242.78 514.1 239.64 509.43 238.17 502.94 233.25 491.62 232.69 486 228.82 475.22 229.75 464.75 233.85 462.55 236.02 447.37 237.59 444.34 239.7 435.55 240.22 431.14 242.88 412.24 245.18"/><polygon class="cls-35" points="486 228.82 487.05 231.01 477.38 231.94 474.32 239.54 493.83 239.69 474.43 241.81 473.36 243.41 457.83 241.44 456.18 243.79 456.54 245.18 539.16 245.18 538.2 243.1 538.24 243.94 516.15 243.53 518.72 242.78 513.56 239.47 509.43 240.92 500.09 239.51 506.76 239.1 502.73 234.83 493.26 234.78 491.62 232.69 486 228.82"/><polygon class="cls-36" points="18.74 274.24 620.57 281.56 619.58 301.37 18.74 292.02 18.74 274.24"/><polygon class="cls-37" points="619.58 301.37 619.58 303.04 19.08 293.08 18.74 292.02 619.58 301.37"/><polygon class="cls-38" points="19.58 347.07 99.59 278.32 357.11 281.25 449.33 281.33 619.58 348.88 619.58 435.13 19.58 435.13 19.58 347.07"/><polygon class="cls-39" points="496.21 299.93 432.54 279.27 433.37 279.28 497.89 299.48 496.21 299.93"/><polygon class="cls-39" points="579.81 300.75 496.59 280.05 581.92 300.78 579.81 300.75"/><polygon class="cls-39" points="82.49 293.01 102.52 275.25 102.23 275.25 81.14 293.01 82.49 293.01"/><polygon class="cls-39" points="145.45 300.24 74.08 300.24 73.06 301.11 145.12 300.68 145.45 300.24"/><polygon class="cls-39" points="496.21 299.93 365.01 298.87 365.94 299.36 497.89 300.6 496.21 299.93"/><path class="cls-30" d="M47.45,227.55s6.14-60,6.48-83.22c.38-25.31.38-66.66.38-66.66l1.61.39v69.3c0,12.78-4.22,80.22-4.22,80.22Z" transform="translate(19.58 35.13)"/><polygon class="cls-31" points="75.5 106.66 63.31 98.42 53.71 99.36 48.91 100.61 49.74 103.74 46.82 101.86 43.37 108.2 46.3 115.53 62.2 108.2 70.45 112.09 77.4 109.62 75.5 106.66"/><polygon class="cls-30" points="70.45 118.98 70.45 132.44 78.27 142.14 79.67 133.49 81.07 120.65 73.89 112.8 70.45 118.98"/><polygon class="cls-32" points="74.79 117.11 74.02 126.73 78.54 124.72 74.64 127.71 75.8 134.39 80.56 138.69 82.51 137.52 81.49 138.69 86.68 142.6 88.98 145.64 90.93 133.84 90.02 130.63 85.43 129.47 89.39 129.47 88.39 123.46 77.5 113.59 75.5 113.19 74.79 117.11"/><path class="cls-32" d="M55.92,78.06,50.87,89.31l-9.44-2.39,8.22,3.36-1,3.37-8.5-3.37,7.27,4-10.4,7.26-1.88,3.94L29.32,94.92l2.38-5.86,6.08-.91H31.7l9.21-7.54L46.56,80l-4.43-.34s11.21-2,12.18-2A3.34,3.34,0,0,1,55.92,78.06Z" transform="translate(19.58 35.13)"/><polygon class="cls-32" points="73.89 113.11 82.57 108.86 93.17 108.2 93.84 109.05 88.82 109.43 95.74 110.65 100 115.3 94.44 116.15 100 116.15 101.62 121.15 98.87 131.5 98.3 128.23 87.88 125.75 91.31 119.85 87.31 124.55 79.14 117.12 76.6 114.15 74.91 114.45 73.89 113.11"/><polygon class="cls-32" points="79.67 110.28 87.21 102.69 84.08 102.69 87.21 101.44 86.38 96.85 69.23 93.82 63.83 92.05 67.36 95.39 67.03 99.36 71.27 99.88 67.03 100.92 71.27 106.66 75.5 108.2 60.18 104.03 51.41 104.58 56.94 106.66 50.58 105.93 44.94 110.28 43.37 120.55 43.37 127.85 47.65 121.61 57.05 117.23 61.33 113.95 63.41 109.62 62.89 113.95 73.51 113.95 79.67 110.28"/><polygon class="cls-30" points="87.31 124.55 76.6 114.15 74.91 114.45 74.02 117.9 87.31 124.55"/><polygon class="cls-30" points="62.89 113.95 68.63 113.95 75.5 113.19 66.11 116.23 60.49 115.74 66.14 115.12 61.71 114.77 62.89 113.95"/><polygon class="cls-30" points="67.03 100.92 63.31 98.42 66.54 105.76 75.5 108.2 71.27 106.66 67.03 100.92"/><path class="cls-30" d="M404.71,235.47s-3.93-38.36-4.15-53.2c-.24-16.18-.24-42.62-.24-42.62l-1,.25v44.3c0,8.18,2.7,51.29,2.7,51.29Z" transform="translate(19.58 35.13)"/><polygon class="cls-31" points="418.87 170.85 426.67 165.58 432.81 166.18 435.88 166.99 435.34 168.99 437.21 167.79 439.41 171.84 437.55 176.53 427.38 171.84 422.1 174.32 417.66 172.75 418.87 170.85"/><polygon class="cls-30" points="422.1 178.73 422.1 187.34 417.1 193.54 416.21 188.01 415.31 179.8 419.9 174.78 422.1 178.73"/><polygon class="cls-32" points="419.33 177.54 419.82 183.69 416.93 182.4 419.42 184.31 418.68 188.58 415.64 191.33 414.39 190.59 415.05 191.33 411.73 193.83 410.26 195.77 409.01 188.23 409.59 186.18 412.53 185.43 409.99 185.43 410.63 181.6 417.59 175.28 418.87 175.03 419.33 177.54"/><path class="cls-32" d="M399.29,139.9l3.23,7.19,6-1.53-5.26,2.15.62,2.16,5.44-2.16-4.65,2.59,6.65,4.64,1.2,2.52,3.74-6.79-1.52-3.74-3.89-.58h3.89l-5.89-4.82-3.61-.4,2.83-.23s-7.17-1.25-7.79-1.25A2.13,2.13,0,0,0,399.29,139.9Z" transform="translate(19.58 35.13)"/><polygon class="cls-32" points="419.9 174.97 414.35 172.26 407.58 171.84 407.15 172.38 410.36 172.62 405.93 173.41 403.21 176.38 406.76 176.92 403.21 176.92 401.04 180.4 403.94 186.74 404.3 184.65 410.96 183.06 408.77 179.29 411.32 182.29 416.55 177.54 418.17 175.64 419.25 175.83 419.9 174.97"/><polygon class="cls-32" points="416.21 173.17 411.39 168.31 413.39 168.31 411.39 167.52 411.92 164.58 422.88 162.65 427.38 164.03 424.08 163.65 424.29 166.18 421.58 166.52 424.29 167.19 421.58 170.85 418.87 171.84 428.67 169.17 434.28 169.52 430.74 170.85 434.81 170.39 438.41 173.17 439.41 179.73 438.55 182.84 437.55 180.06 430.67 177.61 427.94 175.51 426.6 172.75 426.94 175.51 420.14 175.51 416.21 173.17"/><polygon class="cls-30" points="411.32 182.29 418.17 175.64 419.25 175.83 419.82 178.04 411.32 182.29"/><polygon class="cls-30" points="426.94 175.51 423.27 175.51 418.87 175.03 424.88 176.97 428.47 176.66 424.86 176.26 427.69 176.04 426.94 175.51"/><polygon class="cls-30" points="424.29 167.19 426.67 165.58 424.6 170.28 418.87 171.84 421.58 170.85 424.29 167.19"/><polygon class="cls-31" points="227.88 148.84 236 150.18 244.25 148.89 244.11 147.83 240.97 148.24 244.8 140.76 242.41 134.06 240.12 135.67 241.55 133.26 239.81 126.95 233 118.71 228.78 129.1 231.63 133.92 228.3 129.73 227.06 135.68 232.47 140.47 227.28 137.32 226.25 143.98 227.88 148.84"/><path class="cls-30" d="M215.55,232s-1.65-59.76-1.65-71.2S217.55,112,217.55,112h1.66s-3.54,35.73-3.54,48.55S218,232,218,232Z" transform="translate(19.58 35.13)"/><polygon class="cls-30" points="235.07 147.35 233 158.64 235.45 161.75 236.93 157.43 235.91 161.99 238.24 168.1 241.06 164.19 239.81 169.08 247.5 174.75 250.14 163.37 248.45 151.93 244.39 146.44 236.62 146.31 235.07 147.35"/><polygon class="cls-31" points="235.78 146.03 244.14 151.98 246.32 150.79 243.56 148.77 250.01 149.95 257.16 147.41 253.08 143.8 257.45 145.89 260.73 141.74 257.15 139.3 260 140.41 268.43 134.24 256.81 132.64 247.95 135.54 246.2 139.79 246.25 136.46 236.5 140.3 235.78 146.03"/><polygon class="cls-31" points="223.08 151.5 216.08 159.82 215.88 165.68 219.37 163.03 229.88 161.97 240.8 152.37 238.79 145.5 223.08 151.5"/><polygon class="cls-30" points="217.44 158.21 225.84 159.44 234.88 156.35 238.72 147.87 220.28 152.82 217.44 158.21"/><polygon class="cls-31" points="238.41 146.31 233.93 155.54 231.44 155.54 232.9 152.44 227.8 156.58 220.31 157.78 222.16 152.65 219.33 156.58 214.46 154.51 216.43 150.65 214.46 153 204.1 151.62 213.53 144.65 222.7 142.94 226.28 145.83 224.63 142.94 235.03 141.63 238.41 146.31"/><polygon class="cls-32" points="238.79 147.18 238.56 148.23 244.26 140.32 243.18 139.92 240.84 143.4 238.5 135.33 232.16 132.09 231.6 134.84 230.99 132.11 226.62 130.51 213.3 131.25 217.93 137.82 224.22 139.39 218.93 138.63 222.11 143.81 225.07 143.71 224.43 144.63 229.33 149.25 238.79 147.18"/><polygon class="cls-32" points="237.66 145.52 241.03 143.9 249.08 137.54 249.75 138.38 247.26 140.34 255.28 142.83 258.99 149.12 255.64 149.74 259.05 150.15 261.69 154.81 262.25 164.9 252.2 162.46 250.95 157.03 251.61 162.34 246.5 159.06 246.86 151.84 245.47 157.76 239.95 152.17 237.66 145.52"/><polygon class="cls-30" points="238.79 147.18 229.88 147.87 225.07 143.71 222.72 143.71 229.33 149.25 238.79 147.18"/><polygon class="cls-40" points="112.25 66.54 126.74 68.94 141.46 66.63 141.21 64.74 135.61 65.46 142.44 52.14 138.18 40.17 134.09 43.05 136.64 38.76 132.94 31.34 114.76 16 112.72 30.19 118.95 39.93 113.01 32.46 110.81 43.07 120.45 51.62 111.19 45.99 109.37 57.87 112.25 66.54"/><path class="cls-41" d="M105.62,230.45s-3-94.59-3-115,6.53-87,6.53-87h3s-6.31,63.73-6.31,86.58,4.11,115.43,4.11,115.43Z" transform="translate(19.58 35.13)"/><polygon class="cls-42" points="125.08 63.89 121.39 84.03 125.76 89.57 128.41 81.85 126.59 89.99 130.75 100.89 135.78 93.92 133.54 102.63 147.25 112.74 151.97 92.45 148.95 72.05 141.71 62.26 127.85 62.03 125.08 63.89"/><polygon class="cls-40" points="126.36 61.53 141.26 72.14 145.16 70.02 140.23 66.41 151.74 68.52 164.48 64 157.21 57.56 165 61.27 170.84 53.88 164.46 49.53 169.55 51.51 184.59 40.49 163.87 37.66 148.06 42.82 144.93 50.4 145.04 44.47 127.64 51.31 126.36 61.53"/><polygon class="cls-40" points="103.71 71.28 91.22 86.14 90.86 96.57 97.08 91.85 115.83 89.95 135.3 72.84 131.72 60.59 103.71 71.28"/><polygon class="cls-42" points="93.65 83.25 108.63 85.45 124.75 79.94 131.6 64.81 98.71 73.64 93.65 83.25"/><polygon class="cls-43" points="119.13 73.64 131.31 65.45 141.48 51.35 139.55 50.64 135.38 56.84 131.2 42.45 119.9 36.67 118.9 41.57 117.8 36.7 110.02 33.85 86.27 35.17 94.52 46.88 105.74 49.69 96.29 48.34 101.97 57.56 114.85 57.16 104.25 59.43 111.08 69.32 119.13 73.64"/><polygon class="cls-43" points="131.04 62.03 123.06 78.49 118.62 78.49 121.21 72.97 112.12 80.34 98.77 82.48 102.07 73.34 97.01 80.34 88.34 76.66 91.85 69.78 88.34 73.95 69.86 71.5 86.68 59.07 103.03 56.02 109.41 61.18 106.47 56.02 125.02 53.68 131.04 62.03"/><polygon class="cls-43" points="129.71 60.63 135.71 57.72 150.08 46.38 151.26 47.88 146.82 51.38 161.13 55.82 167.74 67.04 161.78 68.14 167.85 68.88 172.56 77.19 173.56 95.18 155.64 90.83 153.41 81.14 154.58 90.61 145.47 84.77 146.11 71.9 143.64 82.45 133.79 72.49 129.71 60.63"/><polygon class="cls-42" points="131.72 63.57 115.83 64.81 107.26 57.4 103.05 57.4 114.85 67.27 131.72 63.57"/><polygon class="cls-40" points="132.73 60.59 148.11 62.33 165.22 78.58 173.56 95.18 164.65 79.31 147.71 63.57 132.73 60.59"/><polygon class="cls-40" points="131.6 58.73 118.62 46.38 86.27 35.17 118.35 47.41 131.6 58.73"/><polygon class="cls-40" points="109.57 62.85 90.86 63.18 69.86 71.5 90.86 63.96 110.07 63.27 109.57 62.85"/><polygon class="cls-44" points="148.11 62.33 169.6 61.77 169.91 63.57 149.41 63.57 148.11 62.33"/><polygon class="cls-44" points="158.55 73.64 160.35 93.91 173.56 95.18 165.22 78.58 158.55 73.64"/><polygon class="cls-44" points="142.93 62.85 138.23 78.58 136.68 77.89 141.71 62.26 142.93 62.85"/><polygon class="cls-44" points="112.85 44.38 107.16 31.55 108.35 31.55 114.34 44.9 112.85 44.38"/><polygon class="cls-44" points="119.48 48.38 97.69 52.35 98.41 54.32 121.1 49.76 119.48 48.38"/><polygon class="cls-44" points="126.36 54.32 100.45 57.4 107.51 62.03 128.37 55.98 126.36 54.32"/><polygon class="cls-44" points="98.58 63.57 87.26 80.59 90.86 82.48 100.05 63.63 98.58 63.57"/><polygon class="cls-44" points="93.65 63.13 86.27 58.18 88.67 57.4 96.49 63.08 93.65 63.13"/><polygon class="cls-43" points="160.52 43.36 164.56 41.4 179.66 45.7 175.53 49.39 160.52 43.36"/><polygon class="cls-43" points="183.99 40.41 164.39 40.41 153.14 46.95 164.56 41.4 183.99 40.41"/><polygon class="cls-43" points="128.37 25.63 125.24 33.85 126.36 36.55 129.19 27.17 128.37 25.63"/><polygon class="cls-40" points="140.43 90.2 136.83 109.17 139.64 111.44 141.48 92.13 140.43 90.2"/><polygon class="cls-40" points="144.29 98.62 150.61 108.49 150.61 112.65 144.29 100.34 144.29 98.62"/><polygon class="cls-43" points="101.63 85.64 99.47 93.91 101.63 93.09 103.05 85.64 101.63 85.64"/><polygon class="cls-40" points="566.67 50.54 552.19 52.93 537.47 50.63 537.71 48.74 543.32 49.46 536.48 36.13 540.74 24.17 544.83 27.05 542.29 22.76 545.99 15.34 564.17 0 566.21 14.19 559.97 23.93 565.92 16.46 568.12 27.07 558.47 35.61 567.74 29.99 569.56 41.87 566.67 50.54"/><path class="cls-41" d="M534.14,226.45s3-106.59,3-127-6.52-87-6.52-87h-3s6.3,63.73,6.3,86.58-4.11,127.43-4.11,127.43Z" transform="translate(19.58 35.13)"/><polygon class="cls-42" points="553.84 47.89 557.54 68.03 553.16 73.57 550.51 65.85 552.34 73.99 548.18 84.89 543.15 77.92 545.38 86.63 531.67 96.74 526.96 76.45 529.97 56.04 537.22 46.26 551.08 46.03 553.84 47.89"/><polygon class="cls-40" points="552.57 45.53 537.67 56.14 533.77 54.01 538.7 50.41 527.18 52.52 514.44 47.99 521.72 41.55 513.92 45.27 508.08 37.88 514.46 33.53 509.38 35.51 494.34 24.49 515.06 21.65 530.87 26.81 534 34.4 533.89 28.46 551.29 35.31 552.57 45.53"/><polygon class="cls-40" points="575.22 55.28 587.7 70.13 588.07 80.57 581.84 75.85 563.1 73.95 543.63 56.84 547.21 44.59 575.22 55.28"/><polygon class="cls-42" points="585.28 67.25 570.29 69.45 554.18 63.94 547.33 48.8 580.22 57.64 585.28 67.25"/><polygon class="cls-43" points="559.8 57.64 547.62 49.45 537.45 35.35 539.38 34.63 543.55 40.83 547.72 26.45 559.03 20.67 560.03 25.57 561.12 20.7 568.91 17.84 592.66 19.16 584.41 30.88 573.19 33.69 582.63 32.34 576.96 41.56 564.08 41.16 574.68 43.43 567.85 53.32 559.8 57.64"/><polygon class="cls-43" points="547.89 46.03 555.87 62.49 560.31 62.49 557.72 56.97 566.81 64.34 580.16 66.48 576.86 57.34 581.92 64.34 590.59 60.65 587.08 53.77 590.59 57.95 609.07 55.49 592.25 43.07 575.9 40.01 569.52 45.17 572.46 40.01 553.91 37.68 547.89 46.03"/><polygon class="cls-43" points="549.21 44.62 543.22 41.72 528.85 30.38 527.66 31.88 532.1 35.38 517.8 39.82 511.18 51.04 517.15 52.14 511.07 52.88 506.37 61.19 505.37 79.18 523.29 74.83 525.51 65.14 524.34 74.61 533.46 68.76 532.81 55.89 535.28 66.45 545.13 56.49 549.21 44.62"/><polygon class="cls-42" points="547.21 47.57 563.1 48.81 571.67 41.4 575.88 41.4 564.08 51.27 547.21 47.57"/><polygon class="cls-40" points="546.2 44.59 530.82 46.33 513.71 62.58 505.37 79.18 514.28 63.31 531.22 47.57 546.2 44.59"/><polygon class="cls-40" points="547.33 42.73 560.31 30.38 592.66 19.16 560.57 31.41 547.33 42.73"/><polygon class="cls-40" points="569.36 46.85 588.07 47.18 609.07 55.49 588.07 47.96 568.86 47.27 569.36 46.85"/><polygon class="cls-44" points="530.82 46.33 509.33 45.76 509.01 47.57 529.51 47.57 530.82 46.33"/><polygon class="cls-44" points="520.38 57.64 518.58 77.91 505.37 79.18 513.71 62.58 520.38 57.64"/><polygon class="cls-44" points="536 46.85 540.7 62.58 542.25 61.89 537.22 46.26 536 46.85"/><polygon class="cls-44" points="566.08 28.38 571.76 15.55 570.58 15.55 564.59 28.9 566.08 28.38"/><polygon class="cls-44" points="559.45 32.37 581.24 36.35 580.52 38.32 557.82 33.76 559.45 32.37"/><polygon class="cls-44" points="552.57 38.32 578.48 41.4 571.41 46.03 550.55 39.97 552.57 38.32"/><polygon class="cls-44" points="580.35 47.57 591.67 64.58 588.07 66.48 578.88 47.63 580.35 47.57"/><polygon class="cls-44" points="585.28 47.13 592.66 42.17 590.26 41.4 582.44 47.08 585.28 47.13"/><polygon class="cls-43" points="518.4 27.36 514.37 25.4 499.27 29.7 503.39 33.38 518.4 27.36"/><polygon class="cls-43" points="494.94 24.41 514.54 24.41 525.78 30.95 514.37 25.4 494.94 24.41"/><polygon class="cls-43" points="550.55 9.62 553.68 17.84 552.57 20.54 549.74 11.17 550.55 9.62"/><polygon class="cls-40" points="538.5 74.19 542.1 93.17 539.29 95.43 537.45 76.13 538.5 74.19"/><polygon class="cls-40" points="534.64 82.62 528.32 92.49 528.32 96.64 534.64 84.33 534.64 82.62"/><polygon class="cls-43" points="577.29 69.64 579.45 77.91 577.29 77.09 575.88 69.64 577.29 69.64"/><polygon class="cls-40" points="471.55 99.57 460.26 97.76 449.96 92.42 450.61 91.08 454.57 93 452.82 81.47 458.92 73.69 461.23 76.83 460.41 73.03 464.98 68.46 482.19 61.63 480.19 72.61 473.18 78.26 479.42 74.22 478.42 82.59 469.18 86.52 477.42 84.66 475.82 93.88 471.55 99.57"/><path class="cls-41" d="M440.78,228.47s2.3-83,2.3-98.89S438,61.82,438,61.82h-2.29s4.91,49.63,4.91,67.42-3.21,99.23-3.21,99.23Z" transform="translate(19.58 35.13)"/><polygon class="cls-42" points="452.09 104.35 454.97 120.03 451.56 124.35 449.5 118.34 450.92 124.67 447.68 133.16 443.77 127.73 445.5 134.52 434.83 142.39 431.16 126.59 433.5 110.7 439.15 103.08 449.94 102.9 452.09 104.35"/><polygon class="cls-40" points="460.6 92.87 445.91 101.84 442.46 102.09 444.17 97.66 437.52 103.89 427.27 106.29 428.55 101.73 425.78 104.73 418.84 102.35 421.18 96.81 418.69 100.25 404.2 99.37 416.57 88.78 429.1 85.5 434.34 89.15 431.77 85.31 446.05 82.46 460.6 92.87"/><polygon class="cls-40" points="477.1 102.95 486.82 114.52 489.57 126.07 482.26 118.97 458.19 114.38 452.5 104.17 455.29 94.63 477.1 102.95"/><polygon class="cls-42" points="484.93 112.27 473.27 113.99 460.71 109.7 455.38 97.91 480.99 104.8 484.93 112.27"/><polygon class="cls-43" points="465.26 104.42 457.05 96.46 451.19 84.26 452.77 83.97 455.12 89.3 460.29 78.85 469.75 75.97 469.85 79.87 471.35 76.28 477.71 75.16 498.53 78.75 487.8 87.29 478.81 87.9 486.24 88.16 480.62 94.45 470.8 92.37 478.62 95.57 472.02 102.21 465.26 104.42"/><polygon class="cls-43" points="455.81 95.75 462.03 108.57 465.49 108.57 463.47 104.27 470.55 110.01 480.94 111.67 478.38 104.56 482.32 110.01 489.07 107.14 486.33 101.78 489.07 105.03 503.46 103.12 490.36 93.45 477.63 91.07 472.66 95.08 474.95 91.07 460.5 89.25 455.81 95.75"/><polygon class="cls-43" points="456.85 94.66 452.18 92.4 440.99 83.57 440.07 84.73 443.52 87.46 432.38 90.92 427.23 99.65 431.88 100.51 427.15 101.08 423.49 107.56 422.7 121.57 436.66 118.18 438.39 110.64 437.48 118.01 444.58 113.46 444.08 103.43 446 111.65 453.67 103.89 456.85 94.66"/><polygon class="cls-42" points="455.29 96.95 467.66 97.92 474.34 92.86 476.35 93.72 468.43 99.83 455.29 96.95"/><polygon class="cls-40" points="454.5 94.63 442.53 95.99 429.2 108.64 422.7 121.57 429.64 109.21 442.83 96.95 454.5 94.63"/><polygon class="cls-40" points="457.75 91.27 469.4 83.59 495.74 79.44 469.46 84.42 457.75 91.27"/><polygon class="cls-40" points="472.54 96.39 487.1 96.65 503.46 103.12 487.1 97.26 472.15 96.72 472.54 96.39"/><polygon class="cls-44" points="442.53 95.99 425.79 95.55 425.54 96.95 441.51 96.95 442.53 95.99"/><polygon class="cls-44" points="434.39 104.8 432.99 120.58 422.7 121.57 429.2 108.64 434.39 104.8"/><polygon class="cls-44" points="446.56 96.39 450.22 108.64 451.43 108.1 447.51 95.93 446.56 96.39"/><polygon class="cls-44" points="474.09 82.85 480.22 73.79 479.31 73.63 472.88 83.04 474.09 82.85"/><polygon class="cls-44" points="468.46 85 484.62 91.04 483.8 92.45 467.03 85.84 468.46 85"/><polygon class="cls-44" points="462.37 88.61 479.51 93.83 475.76 97.11 460.6 89.6 462.37 88.61"/><polygon class="cls-43" points="447.76 96.32 456.85 94.66 456.1 79.89 454.9 79.84 453.71 84.04 448.79 76.82 441.46 75.67 441.8 78.57 440.31 76.07 435.47 75.9 422.54 80.95 429.25 85.95 435.98 85.47 430.5 86.43 435.32 90.52 442.39 87.95 436.93 91.14 442.51 95.38 447.76 96.32"/><polygon class="cls-40" points="455.38 92.45 442.52 81.29 422.54 80.95 442.56 81.91 455.38 92.45"/><polygon class="cls-44" points="438.96 81.23 433.47 75.15 434.13 74.93 439.88 81.25 438.96 81.23"/><polygon class="cls-44" points="443.36 82.24 432 88.41 432.76 89.37 444.13 82.93 443.36 82.24"/><polygon class="cls-44" points="446.56 85.08 434.45 90.7 439.21 91.99 447.98 86 446.56 85.08"/><polygon class="cls-44" points="481.09 96.95 489.91 110.2 487.1 111.67 479.95 97 481.09 96.95"/><polygon class="cls-44" points="484.93 96.61 490.68 92.75 488.81 92.14 482.72 96.57 484.93 96.61"/><polygon class="cls-43" points="421.17 91.11 417.69 91.53 409.62 100.7 413.87 101.38 421.17 91.11"/><polygon class="cls-43" points="404.56 99.06 417.39 90.81 427.51 90.35 417.69 91.53 404.56 99.06"/><polygon class="cls-43" points="469.76 65.37 470.04 72.22 468.55 73.93 468.78 66.31 469.76 65.37"/><polygon class="cls-40" points="440.14 124.83 442.95 139.61 440.76 141.37 439.32 126.34 440.14 124.83"/><polygon class="cls-40" points="437.14 131.4 432.22 139.08 432.22 142.32 437.14 132.73 437.14 131.4"/><polygon class="cls-43" points="478.71 114.14 480.4 120.58 478.71 119.94 477.61 114.14 478.71 114.14"/><polygon class="cls-42" points="439.21 91.99 447.07 95.93 456.68 95.16 456.68 97.53 445.6 97.53 439.21 91.99"/><polygon class="cls-44" points="451.43 78.75 450.59 88.3 451.19 88.73 452.08 79.44 451.43 78.75"/><polygon class="cls-39" points="474.94 356.25 620.05 356.25 619.58 356.73 474.94 356.25"/><polygon class="cls-39" points="418.2 327.34 560.69 325.51 560.27 325.35 417.27 326.84 418.2 327.34"/><polygon class="cls-39" points="79.41 388.52 19.58 389.35 19.58 389.97 79.04 389.02 79.41 388.52"/><polygon class="cls-39" points="28.52 339.38 116.73 338.64 116.42 339.05 28.21 339.65 28.52 339.38"/><polygon class="cls-45" points="19.58 347.07 110.58 346.85 44.55 435.13 19.58 435.13 19.58 378.32 19.58 347.07"/><polygon class="cls-46" points="44.55 435.13 99.29 361.94 19.58 359.11 19.58 435.13 44.55 435.13"/><polygon class="cls-47" points="44.55 435.13 156 286.13 341.22 286.13 619.58 435.13 44.55 435.13"/><polygon class="cls-48" points="85.4 435.13 161.25 304.65 335.91 304.65 480.58 435.13 619.58 435.13 341.22 286.13 156 286.13 44.55 435.13 85.4 435.13"/><polygon class="cls-49" points="161.25 304.65 156 286.13 341.22 286.13 335.91 304.65 161.25 304.65"/><polygon class="cls-49" points="547.65 356.25 472.22 356.25 472.22 427.59 418.01 378.69 418.2 327.34 478.58 326.13 547.65 356.25"/><polygon class="cls-50" points="547.65 356.25 513.68 356.25 478.58 337.88 478.58 326.13 547.65 356.25"/><polygon class="cls-51" points="517.34 356.25 492.1 356.25 486.01 352.33 463.58 337.88 478.58 337.88 517.34 356.25"/><polygon class="cls-51" points="511.52 356.25 472.22 356.25 472.22 427.59 418.01 378.69 418.2 371.78 434.83 371.78 436.33 360.63 449.33 360.63 449.33 348.88 463.58 348.88 486.01 352.33 490.22 352.98 511.52 356.25"/><polygon class="cls-52" points="500.46 356.25 478.58 356.25 463.58 348.88 463.58 337.88 500.46 356.25"/><polygon class="cls-52" points="472.22 361.26 472.22 373.63 449.33 360.63 449.33 348.88 472.22 361.26"/><polygon class="cls-52" points="472.22 385.61 472.22 398.52 434.83 371.78 436.33 360.63 472.22 385.61"/><polygon class="cls-52" points="472.22 415.99 472.22 427.59 418.01 378.69 418.2 371.78 472.22 415.99"/><g class="cls-53"><polygon class="cls-54" points="103.77 403.68 103.77 403.38 441.49 399.73 441.49 400.03 103.77 403.68"/><polygon class="cls-54" points="417.89 435.22 320.96 304.75 321.2 304.56 418.13 435.04 417.89 435.22"/><polygon class="cls-54" points="132.05 435.18 131.76 435.08 178.06 304.61 178.35 304.7 132.05 435.18"/><rect class="cls-54" x="105.25" y="334.61" width="132.38" height="0.3" transform="matrix(0.17, -0.99, 0.99, 0.17, -167.93, 482.2)"/><rect class="cls-54" x="211.68" y="269.52" width="0.3" height="130.48" transform="translate(17.02 36.77) rotate(-0.44)"/><rect class="cls-54" x="253.02" y="267.5" width="0.3" height="134.28" transform="translate(-50.15 101.8) rotate(-13.2)"/><polygon class="cls-54" points="350.95 435.2 287.95 304.47 288.22 304.34 351.22 435.07 350.95 435.2"/><rect class="cls-54" x="125.04" y="366.79" width="279.94" height="0.3"/><polygon class="cls-54" points="137.92 344.94 137.91 344.64 376.52 341.13 376.52 341.43 137.92 344.94"/><rect class="cls-54" x="147.16" y="328.73" width="215.61" height="0.3"/><rect class="cls-54" x="136.42" y="278.09" width="189.24" height="0.3" transform="translate(18.75 35.82) rotate(-0.17)"/></g><polygon class="cls-55" points="185.4 402.65 191.52 366.94 231.41 366.94 231.41 401.7 185.4 402.65"/><polygon class="cls-9" points="318.22 366.94 367.35 366.94 348.6 341.69 306.35 342.31 318.22 366.94"/><polygon class="cls-55" points="299.88 328.88 306.35 342.31 266.44 342.9 263.16 328.88 299.88 328.88"/><polygon class="cls-9" points="143.43 402.65 131.25 436.3 179.83 436.3 185.4 402.65 143.43 402.65"/><polygon class="cls-55" points="231.41 401.7 231.76 435.13 351.08 435.13 334.65 401.03 231.41 401.7"/><polygon class="cls-56" points="609.08 436.3 472.22 363.88 472.22 356.25 535.25 356.25 478.58 331.63 418.01 332.81 340.86 287.39 156.62 288.31 55.91 435.13 609.08 436.3"/><polygon class="cls-57" points="156.62 288.31 140.24 313.07 385.52 313.68 340.86 287.39 156.62 288.31"/><polygon class="cls-58" points="619.58 435.13 472.22 356.25 619.58 356.73 619.58 371.78 619.58 435.13"/><polygon class="cls-46" points="619.58 435.13 534.06 389.35 619.58 390.1 619.58 435.13"/><ellipse class="cls-59" cx="202.37" cy="335.88" rx="12.12" ry="0.74"/><path class="cls-59" d="M215.77,307.9c0,.2-2.36.36-5.27.36s-5.27-.16-5.27-.36,2.35-.35,5.27-.35S215.77,307.71,215.77,307.9Z" transform="translate(19.58 35.13)"/><path class="cls-59" d="M225,265.11c0,.19-2.36.35-5.27.35s-5.27-.16-5.27-.35,2.35-.36,5.27-.36S225,264.91,225,265.11Z" transform="translate(19.58 35.13)"/><ellipse class="cls-59" cx="208.68" cy="369.62" rx="47.32" ry="0.73"/><rect class="cls-60" x="167.36" y="289.51" width="152.95" height="90.07"/><path class="cls-59" d="M292.6,393.51c0,.58-5.43,1.06-12.12,1.06s-12.12-.48-12.12-1.06,5.43-1.05,12.12-1.05S292.6,392.93,292.6,393.51Z" transform="translate(19.58 35.13)"/><ellipse class="cls-59" cx="117.4" cy="425.27" rx="12.12" ry="0.74"/><path class="cls-59" d="M292.82,368c0,.29-2.36.52-5.27.52s-5.27-.23-5.27-.52,2.36-.51,5.27-.51S292.82,367.75,292.82,368Z" transform="translate(19.58 35.13)"/><ellipse class="cls-59" cx="393.81" cy="376.67" rx="5.27" ry="0.52"/><path class="cls-59" d="M327.58,380c0,.19-2.36.35-5.27.35S317,380.15,317,380s2.36-.36,5.27-.36S327.58,379.76,327.58,380Z" transform="translate(19.58 35.13)"/><path class="cls-59" d="M420.52,383c0,.2-2.36.35-5.27.35S410,383.15,410,383s2.36-.35,5.27-.35S420.52,382.76,420.52,383Z" transform="translate(19.58 35.13)"/><ellipse class="cls-59" cx="349.05" cy="383.21" rx="27.02" ry="0.89"/><path class="cls-59" d="M143.47,368.71c0-.38-9.55-.68-21.33-.68s-21.34.3-21.34.68,9.55.67,21.34.67S143.47,369.08,143.47,368.71Z" transform="translate(19.58 35.13)"/><path class="cls-59" d="M259.88,367.3c0,.41-2.31.73-5.15.73s-5.15-.32-5.15-.73,2.3-.73,5.15-.73S259.88,366.9,259.88,367.3Z" transform="translate(19.58 35.13)"/><polygon class="cls-58" points="497.89 299.48 433.37 279.28 496.59 280.05 579.81 300.75 497.89 299.48"/><polygon class="cls-45" points="116.73 338.64 28.48 339.65 73.06 301.11 145.45 300.24 116.73 338.64"/><path class="cls-61" d="M602.52,230a27.38,27.38,0,0,0-12-12c-8.53-4.25-30.3,12-30.3,12s0-8-4.35-8c-7.51,0-13.38,6.75-13.38,6.75s-19.12-4.11-33.41-3c-13.57,1.05-30.78,6.24-30.78,6.24H601Z" transform="translate(19.58 35.13)"/><path class="cls-62" d="M600,185.27s-6.69-19.85-18.69-13.34S560.23,218,560.23,218s2.41-24.45-14.8-21.57-32.76,31.74-32.76,31.74-9.22-8.44-27.95-7-21.47,7-21.47,7,4.48-17.82-5.95-22.26-20.7,2.75-20.7,2.75,4.65-17.18-3.94-17.18c-11.61,0-23.17,26.52-23.17,26.52s-1.49-12.22-13.16-10.22c-9.31,1.59-23.66,20.39-23.66,20.39s-2-7-6.73-7S353.16,232,353.16,232H601Z" transform="translate(19.58 35.13)"/><path class="cls-62" d="M-1.27,177s36.12,11.62,58.53,52.47c0,0,13.39-12.5,28.23-12.5s25.89,13.1,25.89,13.1,5.7-10.73,12-10.73,13.43,10.73,13.43,10.73-2.18-26.29,9.09-29.05c13.23-3.25,39.36,28.45,39.36,28.45s4-9.93,11.7-12.28c9.55-2.91,22.76,14,22.76,14s18.62-9.82,28.46-7.67A32.37,32.37,0,0,1,263.83,232H0Z" transform="translate(19.58 35.13)"/><path class="cls-63" d="M6.11,180.12s-.55,20.14,3.46,30.79S33.44,231.21,42.85,232H0l-1.27-55Z" transform="translate(19.58 35.13)"/><path class="cls-63" d="M61.93,225.77a101.35,101.35,0,0,0,30.71,4.85c17.11,0,15.4-3.87,15.4-3.87l3.34,3.33V232H56.12S57.42,228.69,61.93,225.77Z" transform="translate(19.58 35.13)"/><path class="cls-63" d="M143.31,202.21s-3.79,14.12,4.87,22.78,37.07,4.49,37.07,4.49l1.33,2.51H136.8S134,207.41,143.31,202.21Z" transform="translate(19.58 35.13)"/><path class="cls-63" d="M197,217.2s-3.37,3.57-1.87,7.77,24.63,6.22,24.63,6.22v.8H183.5S188.91,218.74,197,217.2Z" transform="translate(19.58 35.13)"/><path class="cls-63" d="M231,226.18s2.64,2.66,11.34,3.82a107.62,107.62,0,0,0,19.61.3l1.84,1.69H219.71v-.8S228.68,226.91,231,226.18Z" transform="translate(19.58 35.13)"/><path class="cls-63" d="M119.73,220.46s-2.58,4.51.93,8,14.81,0,14.81,0l.93,1,.4,2.47H111.38v-1.91S114.45,223.25,119.73,220.46Z" transform="translate(19.58 35.13)"/><path class="cls-63" d="M362.62,222.35s1.68,5.65,5,7.65,5.27,2,5.27,2l-.25-3.82s10.23-12.94,15.72-16.29c0,0-4.86,6.12-4.86,11s23,6.58,23,6.58l3-11.5s8.35-19.5,18.3-25.08c0,0-11.09,7.91-12.15,21.75s16,11.49,16.44,11,4.52-17,4.52-17,6.22-3.95,12.18-4.1c0,0-9.53,8.06-6.61,19s21.08,4.65,21.08,4.65,43.54,5.87,49.42,0c0,0,9-19.42,25.5-29,0,0-8.77,12.12-.72,23.12s20.86,8.17,20.86,8.17l1.92-12.5s8.78-40,21.08-46.07c0,0-7.94,13.35-6.63,29.37S601,222.5,601,222.5V232H353.16S358.67,224.45,362.62,222.35Z" transform="translate(19.58 35.13)"/><path class="cls-61" d="M478.31,232a203.59,203.59,0,0,0-22.19-5.81c-12.12-2.43-22.73,5-22.73,5s.57-2.87-3.89-3.91S413,232,413,232Z" transform="translate(19.58 35.13)"/><path class="cls-61" d="M92.64,232s8.87-3,14.76-3a8.66,8.66,0,0,1,6.1,2.36s3.69-6.36,7.62-6.36,6,7,6,7,5.1-7.57,10.9-7,9.74,6.33,9.74,6.33a15.59,15.59,0,0,1,8.45-2.85c4.69,0,9.13,3.51,9.13,3.51s.76-2.11,4-2.11,7.88,2.11,7.88,2.11Z" transform="translate(19.58 35.13)"/><path class="cls-64" d="M353.16,232s-7.79-8.59-9-7.35,6.8,7.35,6.8,7.35-7.8-3.78-10.8-3.24a7.33,7.33,0,0,0-4.58,3.24Z" transform="translate(19.58 35.13)"/><path class="cls-64" d="M45,232s-3.13-20.08-5.16-21.08S42.32,223,42.32,223s-7.49-3-7.78-2.18c-.79,2.18,7.84,2.9,7.84,2.9L44.54,232Z" transform="translate(19.58 35.13)"/><path class="cls-64" d="M46.09,232s.4-9.35,1.52-9-1,9-1,9Z" transform="translate(19.58 35.13)"/><path class="cls-64" d="M263.83,232s-4.15-7.77-3.45-8.47,3.06,6.48,3.06,6.48-1.21-13.62.39-13.62,0,11.34,0,11.34,1.76-4.94,2.76-4.56-2.76,5.72-2.76,5.72Z" transform="translate(19.58 35.13)"/><path class="cls-64" d="M488.38,232s0-14.7,1.86-14.7-1.61,11.55-1.61,11.55,2.38-4.22,3.45-3.15-2.41,6.3-2.41,6.3Z" transform="translate(19.58 35.13)"/><path class="cls-64" d="M493.92,232.58s1.91-15.18,2.72-15.18-1.06,10.19-1.06,10.19,5.25-5.88,7.25-5.19-7.25,6.13-7.25,6.13Z" transform="translate(19.58 35.13)"/><path class="cls-64" d="M488.48,231.66s-6.61-7.76-7.45-6.91,7.31,7.08,7.31,7.08Z" transform="translate(19.58 35.13)"/><path class="cls-64" d="M584,232s-5.14-8.8-4.26-9.68,4.19,7.75,4.19,7.75-2.07-19.75-.69-19.18,1,21.11,1,21.11Z" transform="translate(19.58 35.13)"/><path class="cls-65" d="M577.66,156s-.17,14.7-6.26,18.77-8-2.19-8-2.19-21.75,17.66-35.6,3.81c0,0-17.68,7.28-27.75-2.79,0,0-12.21,21.73-30.11-7.45,0,0-21.2,4.81-28.73-13.36,0,0-15.63-1.2-15.63-14.46,0,0-8.24,1.76-2.56-13.33Z" transform="translate(19.58 35.13)"/><path class="cls-66" d="M511,98.75c1.16,0,2.16-1.3,2.23-3s-.82-3.13-2-3.18-2.16,1.3-2.23,3S509.86,98.7,511,98.75Z" transform="translate(19.58 35.13)"/><path class="cls-67" d="M500.43,155.32c43.05,10,72.73,23.39,77.06,6.23a12,12,0,0,0,.34-2.24c1.35-22.09-51.52-61.5-67.33-64.79-10.68-2.22-76.77,3.38-87,29.17C417,140.14,457.37,145.32,500.43,155.32Z" transform="translate(19.58 35.13)"/><path class="cls-68" d="M510.5,94.52s-17.41,2-25.16,7.78L429.39,115S459.23,92.23,510.5,94.52Z" transform="translate(19.58 35.13)"/><path class="cls-69" d="M510.5,94.52a105.15,105.15,0,0,1,20.34,18.65l47,46.14C579.18,137.22,526.31,97.81,510.5,94.52Z" transform="translate(19.58 35.13)"/><path class="cls-70" d="M425.62,138.37l.09.14a33.92,33.92,0,0,0,4.27,5.31,61.5,61.5,0,0,0,10.49,8.5l.78.51c13.16,8.48,32.28,15.82,54.16,20a207.28,207.28,0,0,0,32.43,3.63,150.37,150.37,0,0,0,19.31-.63,83.54,83.54,0,0,0,16.2-3.15l.09,0c8.17-2.6,13.25-6.4,14-11.07,2.2-12.85-16.7-36-48-49-.49-.2-1-.4-1.47-.59q-4.47-1.81-9.25-3.29-4.62-1.45-9.52-2.57-7.45-1.69-14.3-2.69-4.41-.64-8.57-1l-1.05-.09c-37.91-3.24-59.83,9.55-62.59,24.1a10.69,10.69,0,0,0-.2,1.68A17.32,17.32,0,0,0,425.62,138.37Z" transform="translate(19.58 35.13)"/><polygon class="cls-71" points="513.55 305.74 529.55 141.4 527.78 140.98 510.53 305.24 513.55 305.74"/><path class="cls-69" d="M518.78,108.67c7.32,24.52,9,65.8,9.06,67.76v.07a96.18,96.18,0,0,0,19.31-.7,129.33,129.33,0,0,0,16.2-3.15l.09,0c-6.66-23.23-23.14-46-35.41-60.66Q523.56,110.15,518.78,108.67Z" transform="translate(19.58 35.13)"/><path class="cls-69" d="M425.62,138.37l.09.14a27.41,27.41,0,0,0,4.27,5.31,76,76,0,0,0,10.49,8.5l.78.51c16.4-23.31,38.87-40,53.71-49.42l-1.53-.21c-2.4-.34-4.76-.61-7-.81C449.42,117,425.62,138.37,425.62,138.37Z" transform="translate(19.58 35.13)"/><path class="cls-72" d="M528,112a218.69,218.69,0,0,1,35.41,60.66c8.17-2.6,13.25-6.4,14-11.07C579.69,148.7,559.32,125,528,112Z" transform="translate(19.58 35.13)"/><path class="cls-69" d="M441.25,152.83c16.4-23.31,38.87-40,53.71-49.42l-1.53-.21S456.69,125.8,441.25,152.83Z" transform="translate(19.58 35.13)"/><path class="cls-73" d="M495,103.41s-38.56,28.21-53.71,49.42c0,0,16.87,9.81,28.73,13.36l30.11-61.95Z" transform="translate(19.58 35.13)"/><polygon class="cls-74" points="528.84 169.24 523.67 168.34 523.67 174.14 527.15 174.28 528.84 169.24"/><polygon class="cls-74" points="561.2 164.79 528.84 169.24 528.61 169.93 561.2 164.79"/><polygon class="cls-74" points="523.67 168.34 498.24 148.66 497.81 148.99 523.67 169.24 523.67 168.34"/><polygon class="cls-74" points="547.61 147.09 526.84 169.24 525.85 169.24 546.86 146.79 547.61 147.09"/><polygon class="cls-74" points="514.28 138.45 525.47 169.24 524.46 169.24 513.95 138.33 514.28 138.45"/><polygon class="cls-74" points="526.69 168.34 544.27 174.28 526.26 168.79 526.69 168.34"/><polygon class="cls-74" points="524.16 167.9 507.46 166.61 524.81 168.72 524.16 167.9"/><path class="cls-72" d="M521.26,132.07l-1.47-.59q-4.47-1.81-9.25-3.29T501,125.62q-7.44-1.7-14.3-2.69-4.41-.65-8.57-1l-1.05-.09c-25.48-2.18-43.72,2.9-53.79,10.87a14.52,14.52,0,0,1-.52-4.64,13.35,13.35,0,0,1,.2-1.67c2.77-14.55,24.69-27.34,62.59-24.1q.53,0,1.05.09c2.77.24,5.63.59,8.57,1q6.85,1,14.3,2.69,4.89,1.11,9.53,2.56t9.25,3.3c.49.18,1,.39,1.47.59,31.29,13,50.18,36.15,48,49-.66,3.85-4.25,7.12-10.09,9.6C562.36,158.38,545.55,142.18,521.26,132.07Z" transform="translate(19.58 35.13)"/><path class="cls-75" d="M577.49,161.55s-3.11,8.95-10.17-22.54c0,0-24.25-.73-37.82-26.46C560.79,125.57,579.69,148.7,577.49,161.55Z" transform="translate(19.58 35.13)"/><path class="cls-76" d="M495,103.41q6.85,1,14.3,2.69,4.89,1.11,9.52,2.57,4.79,1.47,9.25,3.29c.5.19,1,.39,1.47.59,0,0-39.72-1.78-44.16-10.25l1.05.09Q490.55,102.77,495,103.41Z" transform="translate(19.58 35.13)"/><path class="cls-77" d="M422.75,126.4c2.76-14.55,24.68-27.34,62.59-24.1,0,0-29.69,13.15-39.3,3.55,0,0-20.42,30.32-23.49,22.23A10.69,10.69,0,0,1,422.75,126.4Z" transform="translate(19.58 35.13)"/><polygon class="cls-78" points="361.12 291.19 389.37 289.98 415.35 296.54 376.06 298.22 378 298.87 490.46 296.76 458.7 285.73 359.76 290.07 361.12 291.19"/><polygon class="cls-79" points="419.16 256.69 410.61 284.26 411.24 284.5 420.94 255.62 419.16 256.69"/><polygon class="cls-80" points="418.41 256.69 409.81 283.86 410.61 284.26 419.16 256.69 418.41 256.69"/><polygon class="cls-81" points="360.64 289.69 422.46 253.89 422.46 255.37 361.91 291.78 360.64 289.69"/><polygon class="cls-80" points="422.46 253.89 420.41 253.89 358.74 289.51 360.64 289.69 422.46 253.89"/><polygon class="cls-82" points="358.74 289.51 360.21 291.21 361.91 291.78 360.64 289.69 358.74 289.51"/><polygon class="cls-80" points="361.91 290.1 378.22 296.76 380.5 295.78 362.82 289.54 361.91 290.1"/><polygon class="cls-82" points="361.91 290.1 362.63 291.35 377.76 297.78 378.46 296.24 361.91 290.1"/><polygon class="cls-83" points="358.74 273.98 438.81 292.45 441.21 290.74 359.19 271.55 358.74 273.98"/><polygon class="cls-80" points="441.21 290.74 439.56 289.76 357.88 271.05 359.19 271.55 441.21 290.74"/><polygon class="cls-80" points="358.74 273.98 357.88 273.48 357.88 271.05 359.19 271.55 358.74 273.98"/><path class="cls-84" d="M418,225A126.16,126.16,0,0,1,407.45,238c-4.93,5.18-10.7,10-15.33,10.41-10.18.81-31.77-4.87-31.77-4.87L343,238.38l-2.29-.67c.19,0,1.61.28,3.82.6,7.81,1.16,25.47,3.29,33.68.34a31.92,31.92,0,0,0,4.14-1.88h0c9.7-5.21,19.84-15.61,19.84-15.61Z" transform="translate(19.58 35.13)"/><path class="cls-85" d="M407.46,237.93v0c-4.93,5.18-10.7,10-15.33,10.41-10.18.81-31.77-4.87-31.77-4.87L343,238.38l1.53-.07c7.81,1.16,25.47,3.29,33.68.34a31.92,31.92,0,0,0,4.14-1.88h0Z" transform="translate(19.58 35.13)"/><polygon class="cls-79" points="422.06 254.59 420.83 255.34 439.04 259.29 440.68 258.31 422.06 254.59"/><polygon class="cls-86" points="420.83 255.34 421.16 256.16 438.88 260.44 439.04 259.29 420.83 255.34"/><polygon class="cls-79" points="359.58 272.83 382.11 277.38 382.11 278.49 359.58 273.78 359.58 272.83"/><polygon class="cls-87" points="380.67 279.37 447.51 294.56 450.04 292.76 380.67 277.39 380.67 279.37"/><polygon class="cls-80" points="450.04 292.76 448.3 291.74 380.67 276.5 380.67 277.39 450.04 292.76"/><polygon class="cls-80" points="380.67 279.37 379.94 278.63 380.67 276.5 381.69 277.62 380.67 279.37"/><polygon class="cls-88" points="376.4 296.76 441.21 257.99 442.25 260.21 377.76 298.99 376.4 296.76"/><polygon class="cls-80" points="441.21 257.99 438.87 257.99 374.38 296.57 376.4 296.76 441.21 257.99"/><polygon class="cls-82" points="374.38 296.57 375.94 298.38 377.76 298.99 376.4 296.76 374.38 296.57"/><polygon class="cls-79" points="438.57 262.42 432.35 288.59 432.99 288.83 440.19 261.45 438.57 262.42"/><polygon class="cls-80" points="437.27 263.2 431.55 288.19 432.35 288.59 438.57 262.42 437.27 263.2"/><polygon class="cls-89" points="360.23 273.92 360.23 272.83 380.02 276.5 379.56 278.49 360.23 273.92"/><polygon class="cls-89" points="421.73 256.29 421.73 255.53 422.95 254.59 438.87 257.99 435.95 259.74 421.73 256.29"/><polygon class="cls-90" points="421.73 255.53 437.01 259.11 435.95 259.74 421.73 256.29 421.73 255.53"/><polygon class="cls-91" points="406.95 282.42 406.6 283.09 403.82 284.63 402.25 284.26 405.76 282.15 406.95 282.42"/><path class="cls-92" d="M383.19,247.48c.12.21-.19.61-.68.9s-1,.35-1.12.15.18-.61.68-.9S383.07,247.28,383.19,247.48Z" transform="translate(19.58 35.13)"/><polygon class="cls-93" points="384.07 292.17 405.38 278.9 441.21 257.99 384.07 292.17"/><polygon class="cls-93" points="380.67 276.5 381.28 277.74 380.67 279.37 381.69 277.93 383.12 277.93 381.69 277.62 380.67 276.5"/><polygon class="cls-93" points="390.3 272.51 422.46 253.89 421.73 253.89 390.3 272.51"/><polygon class="cls-93" points="358.53 271.3 358.95 272.83 359.58 271.79 358.53 271.3"/><polygon class="cls-91" points="436.62 266.06 437.38 267.45 438.26 268.76 440.19 261.45 437.27 263.2 436.62 266.06"/><polygon class="cls-78" points="401.99 311.8 433.37 309.63 464.75 317.55 420.07 320.31 422.41 321.09 551.95 315.38 516.47 303.94 400.34 310.45 401.99 311.8"/><polygon class="cls-79" points="476.46 266.9 464.75 302.11 465.57 302.41 478.35 265.88 476.46 266.9"/><polygon class="cls-80" points="475.46 266.95 463.72 301.59 464.75 302.11 476.46 266.9 475.46 266.95"/><polygon class="cls-94" points="400.34 309.1 480.03 262.96 480.03 264.87 401.99 311.8 400.34 309.1"/><polygon class="cls-80" points="480.03 262.96 477.38 262.96 397.9 308.87 400.34 309.1 480.03 262.96"/><polygon class="cls-82" points="397.9 308.87 399.79 311.07 401.99 311.8 400.34 309.1 397.9 308.87"/><polygon class="cls-80" points="401.99 309.63 423 318.22 425.94 316.95 403.16 308.9 401.99 309.63"/><polygon class="cls-82" points="401.99 309.63 402.91 311.25 422.41 319.53 423.31 317.55 401.99 309.63"/><polygon class="cls-95" points="397.9 288.85 501.1 312.66 504.2 310.45 398.47 285.73 397.9 288.85"/><polygon class="cls-80" points="504.2 310.45 502.07 309.19 396.79 285.08 398.47 285.73 504.2 310.45"/><polygon class="cls-80" points="397.9 288.85 396.79 288.21 396.79 285.08 398.47 285.73 397.9 288.85"/><path class="cls-96" d="M480,235.88a164.48,164.48,0,0,1-13.66,16.69C460,259.24,452.55,265.5,446.58,266c-13.12,1-40.95-6.27-40.95-6.27l-22.42-6.59-2.94-.87c.24,0,2.07.36,4.92.79,10.06,1.49,32.82,4.23,43.4.43a40.34,40.34,0,0,0,5.34-2.43h0c12.5-6.7,25.56-20.11,25.56-20.11Z" transform="translate(19.58 35.13)"/><path class="cls-97" d="M466.35,252.54l0,0C460,259.24,452.55,265.5,446.58,266c-13.12,1-40.95-6.27-40.95-6.27l-22.42-6.59,2-.08c10.06,1.49,32.82,4.23,43.4.43a40.34,40.34,0,0,0,5.34-2.43h0Z" transform="translate(19.58 35.13)"/><polygon class="cls-79" points="479.51 263.87 477.93 264.83 501.39 269.92 503.5 268.66 479.51 263.87"/><polygon class="cls-86" points="477.93 264.83 478.35 265.88 501.19 271.41 501.39 269.92 477.93 264.83"/><polygon class="cls-79" points="398.99 287.38 428.02 293.23 428.02 294.67 398.99 288.6 398.99 287.38"/><polygon class="cls-98" points="426.17 295.8 512.31 315.38 515.57 313.06 426.17 293.25 426.17 295.8"/><polygon class="cls-80" points="515.57 313.06 513.33 311.74 426.17 292.1 426.17 293.25 515.57 313.06"/><polygon class="cls-80" points="426.17 295.8 425.21 294.85 426.17 292.1 427.48 293.55 426.17 295.8"/><polygon class="cls-99" points="420.66 318.22 504.2 268.25 505.54 271.1 422.41 321.09 420.66 318.22"/><polygon class="cls-80" points="504.2 268.25 501.18 268.25 418.05 317.97 420.66 318.22 504.2 268.25"/><polygon class="cls-82" points="418.05 317.97 420.07 320.31 422.41 321.09 420.66 318.22 418.05 317.97"/><polygon class="cls-79" points="501.98 273.24 492.78 307.68 493.59 307.99 503.47 272.35 501.98 273.24"/><polygon class="cls-80" points="500.55 274.1 491.75 307.16 492.78 307.68 501.98 273.24 500.55 274.1"/><polygon class="cls-96" points="399.82 288.77 399.82 287.38 425.33 292.1 424.74 294.67 399.82 288.77"/><polygon class="cls-96" points="479.08 266.06 479.08 265.08 480.66 263.87 501.18 268.25 497.42 270.49 479.08 266.06"/><polygon class="cls-100" points="479.08 265.08 498.78 269.68 497.42 270.49 479.08 266.06 479.08 265.08"/><polygon class="cls-91" points="460.03 299.73 459.58 300.6 456 302.58 453.98 302.11 458.5 299.38 460.03 299.73"/><path class="cls-92" d="M435.07,264.86c.15.26-.24.78-.88,1.15s-1.29.46-1.45.19.24-.79.89-1.16S434.92,264.59,435.07,264.86Z" transform="translate(19.58 35.13)"/><polygon class="cls-93" points="430.55 312.3 458.02 295.2 504.2 268.25 430.55 312.3"/><polygon class="cls-93" points="426.17 292.1 426.95 293.7 426.17 295.8 427.48 293.95 429.32 293.95 427.48 293.55 426.17 292.1"/><polygon class="cls-93" points="438.57 286.97 480.03 262.96 479.08 262.96 438.57 286.97"/><polygon class="cls-93" points="397.63 285.4 398.17 287.38 398.99 286.03 397.63 285.4"/><polygon class="cls-91" points="499.42 278.32 500.55 278.6 501.32 280.11 503.47 272.35 500.55 274.1 499.42 278.32"/><circle class="cls-101" cx="387.85" cy="389.07" r="23.02"/><circle class="cls-102" cx="366.08" cy="352.34" r="19.36" transform="translate(-80.95 588.56) rotate(-67.22)"/><path class="cls-103" d="M391.05,357.26a38.33,38.33,0,0,1-21.4,6.57c-9.53,0-18.08-1.17-24.25-7.33l.3,1.92s3.92,6.83,19,7.94c16.25,1.19,26.07-7.52,26.07-7.52Z" transform="translate(19.58 35.13)"/><path class="cls-104" d="M363.11,368.87a23,23,0,0,0,21.56-31.08A23,23,0,1,1,346.72,362,23,23,0,0,0,363.11,368.87Z" transform="translate(19.58 35.13)"/><path class="cls-105" d="M349.12,343.19c-.6,1.87-.46,3.6.32,3.85s1.91-1.06,2.52-2.93.47-3.6-.32-3.85S349.73,341.32,349.12,343.19Z" transform="translate(19.58 35.13)"/><path class="cls-105" d="M347.47,348.87a1.4,1.4,0,1,0,1.77-.9A1.4,1.4,0,0,0,347.47,348.87Z" transform="translate(19.58 35.13)"/><g class="cls-106"><ellipse class="cls-107" cx="387.85" cy="432.61" rx="23.02" ry="29.9"/><ellipse class="cls-102" cx="385.67" cy="434.68" rx="19.36" ry="25.16"/><path class="cls-104" d="M363.11,378.08c12.71,0,23,13.38,23,29.9a37.85,37.85,0,0,1-1.46,10.48,34.87,34.87,0,0,0,6.62-21c0-16.51-10.31-29.9-23-29.9-9.87,0-18.28,8.07-21.55,19.42C350.89,381.49,356.69,378.08,363.11,378.08Z" transform="translate(19.58 35.13)"/><path class="cls-105" d="M349.12,411.44c-.6-2.43-.46-4.67.32-5s1.91,1.37,2.52,3.81.47,4.67-.32,5S349.73,413.88,349.12,411.44Z" transform="translate(19.58 35.13)"/><path class="cls-105" d="M347.47,404.07a2,2,0,0,1,.9-2.29c.74-.31,1.53.21,1.77,1.17a2,2,0,0,1-.9,2.29C348.5,405.55,347.71,405,347.47,404.07Z" transform="translate(19.58 35.13)"/></g><path class="cls-108" d="M343,371.36s16.85,6.4,32.22,4.1,22.34-6.39,22.34-6.39l-6.22-1.49,8.89,1.49s-12,7.88-31,8.45c-16.17.49-29.94-6.46-29.94-6.46l7.74-2Z" transform="translate(19.58 35.13)"/><path class="cls-109" d="M336.57,367.58s-9.95,2.34-14.42,6.81,21.49,10.88,54.29,8.3,40.43-10.72,40.43-12.47c0-3.14-19.59-5.45-19.59-5.45s17.2,2.81,17.2,5.47-13.87,9.46-39,11.08S329,381.11,324.84,377,336.57,367.58,336.57,367.58Z" transform="translate(19.58 35.13)"/><path class="cls-109" d="M207.23,321.37s-13.68,2.37-19.83,6.88,29.54,11,74.63,8.36S317.6,325.8,317.6,324c0-3.17-26.93-5.5-26.93-5.5s23.65,2.83,23.65,5.52-19.06,9.53-53.54,11.17-64-.21-69.68-4.4S207.23,321.37,207.23,321.37Z" transform="translate(19.58 35.13)"/><g class="cls-106"><path class="cls-110" d="M214,366.48s.67-6.36,2.66-7.61,6.35,1.57,6.35,1.57a11.87,11.87,0,0,0-3.86,7.52A7,7,0,0,0,214,366.48Z" transform="translate(19.58 35.13)"/><path class="cls-111" d="M279.61,336.92s5.79,2.05,11.74,8.66c0,0-1.62-15.57-13.17-20.64Z" transform="translate(19.58 35.13)"/><path class="cls-111" d="M280,327.67c0-1.2-.88-2.22-2.49-3.07h0c-4.58-2.44-15-3.51-27.64-3.51-10.42,0-19.89.73-25.68,2.37h0a14.44,14.44,0,0,0-4.29,1.81l-.34.25-.14.13a3.83,3.83,0,0,0-.56.59h0a2.29,2.29,0,0,0-.51,1.42c0,2.78,5,5.24,12.63,6.77A89.34,89.34,0,0,0,244.88,336c1.39,0,2.81.08,4.25.08s2.87,0,4.26-.08a97.42,97.42,0,0,0,10.47-.94c1.22-.18,2.38-.38,3.49-.6C275,332.91,280,330.45,280,327.67Z" transform="translate(19.58 35.13)"/><path class="cls-111" d="M278.18,324.94a3.49,3.49,0,0,0-.7-.34h-.67L244,325l-3,0-14.64.17-6.55.07h0l-.3.25-.14.13a6.65,6.65,0,0,0-.56.59h0a9.37,9.37,0,0,0-2.22,5.09,11.82,11.82,0,0,0,.52,4.82,14.57,14.57,0,0,0,.62,1.69h0c.1.24.21.5.34.76l31.28,2.2,2.85-.26,15.88-1.45L280.53,338s.18-.82.35-2.06C281.28,332.76,281.52,326.91,278.18,324.94Z" transform="translate(19.58 35.13)"/><path class="cls-112" d="M249.13,342.3c-15.74,0-28.77-1.6-31-3.68a.89.89,0,0,1-.36-.65s0-.08,0-.11h0a14.57,14.57,0,0,1-.62-1.69,11.82,11.82,0,0,1-.52-4.82,9.37,9.37,0,0,1,2.22-5.09h0a3.83,3.83,0,0,1,.56-.59l.14-.13.3-.25h0a14.44,14.44,0,0,1,4.29-1.81h0A61.17,61.17,0,0,1,244,325a43.57,43.57,0,0,1,9.61,3.58,63.72,63.72,0,0,1,8.93,5.48c.46.33.89.67,1.29,1a29.6,29.6,0,0,1,4.23,4.07,10.35,10.35,0,0,1,1.46,2.15A180.65,180.65,0,0,1,249.13,342.3Zm4.26-6.32c-1.35-.06-2.78-.09-4.26-.09s-2.9,0-4.25.09c-5.53.22-9.73.87-10.64,1.67a.43.43,0,0,0-.18.32c0,1.06,5.77,1.94,13.23,2.06l1.84,0c8.32,0,15.06-.94,15.06-2.08C264.19,337,259.63,336.23,253.39,336Z" transform="translate(19.58 35.13)"/><path class="cls-113" d="M241.43,333.61c0-.31-3.43-.29-7.63,0s-7.57.84-7.55,1.15,3.43.29,7.62,0S241.45,333.92,241.43,333.61Z" transform="translate(19.58 35.13)"/><ellipse class="cls-113" cx="265.72" cy="368.77" rx="3.1" ry="0.56"/><path class="cls-114" d="M291.35,345.58c.89,2.83-12.82-6.09-12.82-6.09l.79-2.71S289.9,341,291.35,345.58Z" transform="translate(19.58 35.13)"/><path class="cls-113" d="M289.2,342.58c.14-.27-.95-1.26-2.44-2.21s-2.8-1.51-2.94-1.24,1,1.25,2.44,2.2S289.06,342.84,289.2,342.58Z" transform="translate(19.58 35.13)"/><path class="cls-113" d="M283.14,338.6c.12-.27-.1-.66-.48-.86s-.78-.13-.9.15a.77.77,0,0,0,.48.86C282.62,339,283,338.88,283.14,338.6Z" transform="translate(19.58 35.13)"/><path class="cls-111" d="M234.24,337.65s-5.75-2.87-15.85.53l-.28.09-.11,0,.4.84c1.13,2.35,4.5,9.33,8.41,16.84a24.48,24.48,0,0,1,2.61,10.94c0,6.28-2.38,11.56-6.59,11.09-2.91-.32-3.62-4.19-3.75-7v0c0-.89,0-1.68,0-2.22h0c0-.48,0-.78,0-.78a5,5,0,0,0-3.51-2,3.27,3.27,0,0,0-1.64.48v.09a15.42,15.42,0,0,0-1.87,1.68h0a14.93,14.93,0,0,0-4.15,7.66,10.83,10.83,0,0,0,.68,5.85c3.64,9.13,14.79,9.35,22,2.56h0a19.72,19.72,0,0,0,4.55-6.55C240.47,365.66,234.24,337.65,234.24,337.65Z" transform="translate(19.58 35.13)"/><path class="cls-114" d="M230.64,384.33A11.68,11.68,0,0,1,218,381.11c-4.91-5.46-9.24-5.28-10.06-5.19a10.83,10.83,0,0,0,.68,5.85C212.29,390.9,223.44,391.12,230.64,384.33Z" transform="translate(19.58 35.13)"/><path class="cls-113" d="M219.14,368a5,5,0,0,0-3.51-2,3.27,3.27,0,0,0-1.64.48,6.47,6.47,0,0,0-1.87,1.77h0c.09.18,1.81,3.44,3.11,4.14,1,.51,3.85-1.41,3.85-1.41v0Z" transform="translate(19.58 35.13)"/><path class="cls-113" d="M215.09,376.9c0-2.32-1.13-4.21-2.52-4.21S210,374.58,210,376.9s1.13,4.21,2.53,4.21S215.09,379.23,215.09,376.9Z" transform="translate(19.58 35.13)"/><path class="cls-115" d="M214,376.9c0-1.54-.75-2.78-1.67-2.78s-1.67,1.24-1.67,2.78.75,2.79,1.67,2.79S214,378.44,214,376.9Z" transform="translate(19.58 35.13)"/><ellipse class="cls-113" cx="233.53" cy="412.04" rx="0.57" ry="0.95"/><path class="cls-114" d="M232.58,348.65c-4.84-6.42-12.46-9.77-14.19-10.47-.21-.08-.36.14-.39.13a.71.71,0,0,0,.05.19c.06.19.21.26.35.65,1.13,2.35,4.5,9.33,8.41,16.84a24.48,24.48,0,0,1,2.61,10.94C230.78,365.42,238.07,355.92,232.58,348.65Z" transform="translate(19.58 35.13)"/><path class="cls-113" d="M234,357.36c.5-.16,0-3.93-1.22-8.42s-2.53-8-3-7.83,0,3.93,1.22,8.42S233.48,357.52,234,357.36Z" transform="translate(19.58 35.13)"/><path class="cls-113" d="M234.63,360.59c.37,0,.62-.56.56-1.13s-.43-1-.81-.93-.62.56-.56,1.13S234.25,360.65,234.63,360.59Z" transform="translate(19.58 35.13)"/><path class="cls-113" d="M214.17,386.45a1,1,0,0,0-.43-1.2.77.77,0,0,0-1.15.09,1,1,0,0,0,.42,1.2A.79.79,0,0,0,214.17,386.45Z" transform="translate(19.58 35.13)"/><path class="cls-113" d="M219.47,388.39c.1-.4-.93-1.05-2.3-1.44s-2.55-.38-2.64,0,.94,1,2.3,1.43S219.38,388.79,219.47,388.39Z" transform="translate(19.58 35.13)"/></g><path class="cls-110" d="M213.79,290.19s.67,5.72,2.66,6.84,6.35-1.41,6.35-1.41a10.47,10.47,0,0,1-3.86-6.76A7.5,7.5,0,0,1,213.79,290.19Z" transform="translate(19.58 35.13)"/><path class="cls-111" d="M279.41,316.78A32.65,32.65,0,0,0,291.15,309s-1.62,14-13.17,18.57Z" transform="translate(19.58 35.13)"/><path class="cls-111" d="M279.77,325.1c0,1.08-.88,2-2.49,2.77h0c-4.58,2.19-15,3.15-27.64,3.15-10.42,0-19.89-.66-25.68-2.13h0a15.35,15.35,0,0,1-4.29-1.63l-.34-.23a1.1,1.1,0,0,1-.14-.11,3.19,3.19,0,0,1-.56-.53h0a2,2,0,0,1-.51-1.28c0-2.5,5-4.72,12.63-6.09a98.8,98.8,0,0,1,14-1.38c1.39-.05,2.81-.07,4.25-.07s2.87,0,4.26.07c3.74.12,7.28.42,10.47.84,1.22.16,2.38.34,3.49.54C274.8,320.38,279.77,322.6,279.77,325.1Z" transform="translate(19.58 35.13)"/><path class="cls-111" d="M278,327.56a4.94,4.94,0,0,1-.7.31h-.67l-32.78-.35-3,0-14.64-.15-6.55-.07h0s-.12-.08-.3-.23a1.1,1.1,0,0,1-.14-.11c-.16-.14-.36-.32-.56-.53h0a8.09,8.09,0,0,1-2.22-4.58,9.65,9.65,0,0,1,.52-4.34,13.16,13.16,0,0,1,.62-1.52h0c.1-.22.21-.46.34-.69l31.28-2,2.85.24,15.88,1.3,12.44,1s.18.73.35,1.85C281.08,320.52,281.32,325.79,278,327.56Z" transform="translate(19.58 35.13)"/><path class="cls-114" d="M271.66,313.15h0c-.73-.1-1.5-.19-2.3-.27a199,199,0,0,0-20.42-.94c-15.74,0-28.77,1.44-31.05,3.31a.79.79,0,0,0-.36.59s0,.07,0,.1h0c.21.94,3.11,1.8,7.79,2.47,1.6.22,3.42.43,5.41.6,5.13.46,11.41.72,18.2.72,4.81,0,9.37-.13,13.44-.37,1.68-.1,3.28-.22,4.78-.35,8-.71,13.18-1.87,13.18-3.17C280.33,314.79,277,313.84,271.66,313.15Zm-18.47,4.48c-1.35.05-2.78.07-4.26.07s-2.9,0-4.25-.07c-5.53-.2-9.73-.79-10.64-1.5a.39.39,0,0,1-.18-.29c0-.95,5.77-1.75,13.23-1.86h1.84c8.32,0,15.06.84,15.06,1.87C264,316.69,259.43,317.4,253.19,317.63Z" transform="translate(19.58 35.13)"/><path class="cls-112" d="M248.93,311.94c-15.74,0-28.77,1.44-31.05,3.31a.79.79,0,0,0-.36.59s0,.07,0,.1h0a13.16,13.16,0,0,0-.62,1.52,9.65,9.65,0,0,0-.52,4.34,8.09,8.09,0,0,0,2.22,4.58h0a3.19,3.19,0,0,0,.56.53,1.1,1.1,0,0,0,.14.11c.18.15.3.23.3.23h0a15.35,15.35,0,0,0,4.29,1.63h0a67.89,67.89,0,0,0,19.88-1.38,47.64,47.64,0,0,0,9.61-3.22,67.43,67.43,0,0,0,8.93-4.93l1.29-.89a27.77,27.77,0,0,0,4.23-3.66,9.23,9.23,0,0,0,1.46-1.93A199,199,0,0,0,248.93,311.94Zm4.26,5.69c-1.35.05-2.78.07-4.26.07s-2.9,0-4.25-.07c-5.53-.2-9.73-.79-10.64-1.5a.39.39,0,0,1-.18-.29c0-.95,5.77-1.75,13.23-1.86h1.84c8.32,0,15.06.84,15.06,1.87C264,316.69,259.43,317.4,253.19,317.63Z" transform="translate(19.58 35.13)"/><path class="cls-113" d="M241.23,319.76c0,.28-3.43.26-7.63,0s-7.57-.75-7.55-1,3.43-.26,7.62,0S241.25,319.48,241.23,319.76Z" transform="translate(19.58 35.13)"/><ellipse class="cls-113" cx="265.52" cy="354.86" rx="3.1" ry="0.5"/><path class="cls-114" d="M291.15,309c.89-2.55-12.82,5.47-12.82,5.47l.79,2.45S289.7,313.1,291.15,309Z" transform="translate(19.58 35.13)"/><path class="cls-113" d="M289,311.69c.14.24-.95,1.13-2.44,2s-2.8,1.36-2.94,1.12,1-1.13,2.44-2S288.86,311.45,289,311.69Z" transform="translate(19.58 35.13)"/><path class="cls-113" d="M282.94,315.27c.12.25-.1.59-.48.77s-.78.12-.9-.13.1-.6.48-.78S282.82,315,282.94,315.27Z" transform="translate(19.58 35.13)"/><path class="cls-111" d="M234,316.13s-5.75,2.58-15.85-.48l-.28-.09-.11,0,.4-.76c1.13-2.11,4.5-8.39,8.41-15.15a20.3,20.3,0,0,0,2.61-9.84c0-5.65-2.38-10.4-6.59-10-2.91.29-3.62,3.77-3.75,6.32v0a18.18,18.18,0,0,0,0,2h0c0,.43.05.7.05.7a5.16,5.16,0,0,1-3.51,1.76,3.57,3.57,0,0,1-1.64-.43v-.08a16.28,16.28,0,0,1-1.87-1.51h0a13.07,13.07,0,0,1-4.15-6.89,8.83,8.83,0,0,1,.68-5.26c3.64-8.22,14.79-8.42,22-2.31h0A18,18,0,0,1,235,280C240.27,290.93,234,316.13,234,316.13Z" transform="translate(19.58 35.13)"/><path class="cls-114" d="M230.44,274.13c-.41-.14-7.31-2.4-12.61,2.9-4.91,4.91-9.24,4.74-10.06,4.67a8.83,8.83,0,0,1,.68-5.26C212.09,268.22,223.24,268,230.44,274.13Z" transform="translate(19.58 35.13)"/><path class="cls-113" d="M218.94,288.86a5.16,5.16,0,0,1-3.51,1.76,3.57,3.57,0,0,1-1.64-.43,6.27,6.27,0,0,1-1.87-1.59h0c.09-.17,1.81-3.1,3.11-3.72,1-.47,3.85,1.26,3.85,1.26v0Z" transform="translate(19.58 35.13)"/><path class="cls-113" d="M214.89,280.81c0,2.1-1.13,3.79-2.52,3.79s-2.53-1.69-2.53-3.79S211,277,212.37,277,214.89,278.72,214.89,280.81Z" transform="translate(19.58 35.13)"/><path class="cls-115" d="M213.75,280.81c0,1.39-.75,2.51-1.67,2.51s-1.67-1.12-1.67-2.51.75-2.5,1.67-2.5S213.75,279.43,213.75,280.81Z" transform="translate(19.58 35.13)"/><path class="cls-113" d="M214.32,280.81c0,.48-.25.86-.57.86s-.57-.38-.57-.86.26-.85.57-.85S214.32,280.34,214.32,280.81Z" transform="translate(19.58 35.13)"/><path class="cls-114" d="M232.38,306.23c-4.84,5.77-12.46,8.78-14.19,9.42-.21.07-.36-.13-.39-.12a.39.39,0,0,1,0-.17c.06-.17.21-.23.35-.59,1.13-2.11,4.5-8.39,8.41-15.15a20.3,20.3,0,0,0,2.61-9.84C230.58,291.14,237.87,299.69,232.38,306.23Z" transform="translate(19.58 35.13)"/><path class="cls-113" d="M214,272.23a1,1,0,0,1-1.58,1c-.21-.32,0-.8.42-1.08A.85.85,0,0,1,214,272.23Z" transform="translate(19.58 35.13)"/><path class="cls-113" d="M219.27,270.48c.1.36-.93.94-2.3,1.29s-2.55.35-2.64,0,.94-.94,2.3-1.29S219.18,270.12,219.27,270.48Z" transform="translate(19.58 35.13)"/><path class="cls-108" d="M217.13,326.67s-5.74.41-8.88,1.86,14.86,4.7,40,4.7,48.22-3.79,48.91-5.67S285,324.94,285,324.94s9.66,1.43,9.66,2.62-22.41,5.15-46,5.15-38-3.06-38.61-3.63S217.13,326.67,217.13,326.67Z" transform="translate(19.58 35.13)"/><polygon class="cls-116" points="75.51 331.19 118.23 336.62 127.5 324.23 114.66 322.13 96.7 330.33 75.51 331.19"/><polygon class="cls-90" points="75.51 331.19 75.51 318.45 108.74 318.45 109.79 330.33 75.51 331.19"/><polygon class="cls-117" points="109.79 330.33 114.66 323.01 114.66 316.85 108.74 318.45 109.79 330.33"/><polygon class="cls-84" points="58.64 315.95 212.12 316.85 213.66 307.89 69 307.86 58.64 315.95"/><polygon class="cls-90" points="58.64 315.95 59.83 318.45 212.16 318.45 213.66 309.37 213.66 307.89 212.12 316.85 58.64 315.95"/><polygon class="cls-117" points="69 318.45 74.41 320.76 134.69 320.76 142.16 318.45 69 318.45"/><polygon class="cls-118" points="75.51 323.59 109.3 324.82 114.66 322.13 114.66 320.76 75.51 320.76 75.51 323.59"/><polygon class="cls-119" points="212.16 318.45 212.12 316.85 213.66 307.89 213.66 309.37 212.16 318.45"/><polygon class="cls-118" points="69 318.45 70.35 319.03 139.58 319.61 142.16 318.45 69 318.45"/></g></g></g></g></svg>